<?xml version="1.0" encoding="utf-8"?>
<!-- Generator: Adobe Illustrator 19.0.0, SVG Export Plug-In . SVG Version: 6.00 Build 0)  -->
<svg version="1.1" id="图层_1" xmlns="http://www.w3.org/2000/svg" xmlns:xlink="http://www.w3.org/1999/xlink" x="0px" y="0px"
	 viewBox="0 0 830 580" style="enable-background:new 0 0 830 580;" xml:space="preserve">
<style type="text/css">
	.st0{fill:#FFFFFF;stroke:#000000;stroke-miterlimit:10;}
	.st1{fill:#050405;}
	.st2{font-family:'MicrosoftYaHei';}
	.st3{font-size:12px;}
	.st4{fill:#FFFFFF;stroke:#040404;stroke-miterlimit:10;}
	.st5{fill:#FFFFFF;}
	.st6{fill:#A57AB7;stroke:#000000;stroke-miterlimit:10;}
	.st7{fill:none;stroke:#FFFFFF;stroke-width:2;stroke-miterlimit:10;}
</style>
<g id="alagong">
	<path id="XMLID_61_" class="st0" d="M560.5,64.5l-0.1-1.3l0.4-1.3L562,61l-0.2-1.2l1-0.9l1.1-1.1h1.2h1.4l0.2,0.7v0.6v1.1h1.2
		L569,61l1.5,1.2l1.5,0.9l0.2,1.2h1.9l0.3,1.5l1,0.2l0.1-1l-0.1-1.2l0.6-0.7l0.6-0.2l0.8,1.3h0.9l0.7,0.7l0.5-0.7h0.9h0.8l0.9-0.8
		l1.1-0.7l1.1-0.2l0.3-0.5h1.6l0.6,0.5l1.2,0.6l0.5,1l1.8,0.4l1.3,0.2l0.9,1.3l1.5,1.2l-0.1,1.3l0.9,0.2l0.9,0.8l1.1,1.2l2.5-0.1
		v-0.8l2.3,0.2l0.5-0.9l0.5-0.3l0.9-0.2l1.6-0.2l1.1-0.9h1.2l1.1,0.4l1.3,0.5l0.4,0.9l0.9,1.2h1l1.2-0.1l-0.4-0.8l0.3-0.8l0.5-0.5
		l1.1-0.6l0.8,0.4l0.5,0.8l0.8,0.3L617,70l1,0.2l0.4-0.7v-0.8l0.9-0.5l0.7,1.1l1.1,0.4l0.3-1h1.3l1.1,0.5l0.4-0.6l1.5,0.1l1.5,0.5
		l0.8,0.9l0.7,1l0.8,1.2l1.2,1.2L632,74l0.3,2l-0.6,0.9l-0.2,0.9l-0.8,0.3l-0.5,0.8l1,0.5l-0.2,1.2l-1.1,0.1l-0.5,0.9l0.8,0.8l0.2,1
		l0.8,1.2l1,0.4l-0.2,1.3l-0.1,1.2l-0.2,0.9l1,0.8L632,90l-0.2,0.6l1.4,0.1v0.9l-0.4,0.3l-0.5,1.3l-0.7,2.1l-0.2,0.6l-0.2,0.7
		l-0.1,1.2l-0.2,1.6l0,0l-0.1,1.4l0.4,1.7v0.8l-0.5,1.5l-0.2,0.6l-0.7,2.1l-0.1,0.5l-0.3,0.9l0.3,1.2l-0.8,1l-1.4,0.2l-0.2,1.1
		l-1.9,1.3l0.3,1.1l1.1,0.4v0.9v0.9l0.5,0.5v0.9l-1.2,0.5l-1,0.4v1.2v1.1h-1.9l-1.3,1.2v2.2l-0.5,0.5l-2.3,0.4l-0.7,0.7l-1,0.5
		l-0.4,1.2l-1.2,1.2l-0.2,0.9l0.5,1.6l0.9,3.2l3.6,0.1v3.6l-1.4,2.6l-2,0.3v1.2l-0.1,0.8v0.7v0.7l0.1,0.6l-0.8,0.6l-0.3,0.4l0.6,1
		l1.1,0.6l0.6,0.4l0.2,0.9l-1.3,0.9l-0.1,0.8l0.9,0.7l0.4,1.1l0.1,0.5l0.1,0.4l0.1,0.4v0.3l-0.1,0.6l-0.2,1.3l-0.2,0.7l-1.6,0.5
		l-0.7,1l-0.3,0.4v1.8l-0.5,0.9l-1.8,0.2l-0.2,1h-1.9l-0.1,1.7l0.9,1.1l0.2,1.1v0.6l1,1.1l1.1,1.3l0.2,1.3l0.5,1.1l0.2,1.3l-0.5,1.2
		l-1.1,0.8l-0.2,1.6l-0.2,0.9l0.5,1.1l0.5,0.9l0.9,0.9v0.8l-0.6,1l-1.3,0.9l-0.5,0.6l-0.4,0.6l-0.8,1l-1.4,0.5v1.1l-0.3,0.5
		l-1.3,0.2l-0.2-0.8l-0.7-0.1l-0.5,0.7l-1.4,0.6l-1,0.8l-0.8,0.2l-0.3-2.1l-1.4-0.2l-0.8,0.9l-2.1-0.4l-0.8-1.1h-1l-0.7-1.2
		l-0.8-1.2l-1.6-0.1l-0.7,0.4l-0.5,1.1l-0.6,1.5l-0.5,0.9v2.4l-1.1,0.2l-0.9,0.4l-0.5,0.8l-0.9,0.2l-0.2-1l-2-0.1l-0.7,0.4l-0.3,0.9
		l0.7,0.3l0.3,0.5l-0.8,0.5v0.7l0.5,0.6l0.9,0.5h0.9l2.2-0.5l-0.1,1.4l-0.2,0.7l-0.5,0.2v1.4l0.6-0.2l0.1,1.1l-0.7,0.5l0.1,0.3
		l0.3,0.7l0.3,0.6l0.2,0.6l0.3,0.8l-0.7,1.2l-1.4-0.1l-0.3,0.6l-0.9,0.1l-0.1,0.9l0.6,0.2l0.6,0.8l2.2,2.2v1.2l-0.6-0.3l-0.6,0.7
		l-1.1,1.2l-1.7,1.8l-1,0.2v1.1l0.8,0.4l-0.1,0.9l-2.5,0.9l-2.4,0.8v0.5l-1,0.2V218l-1.6-0.1v1.4l-0.6,2.3l-0.7,0.7v1.9l-0.6,1
		l-0.4,0.8l-0.3,0.5L576,227l-0.3,0.4l-0.5,1l-1.9,1.9h-3.7v1.9l-0.7,0.9l-0.9,0.3l-1.4,0.6l-1,1l0.5,2.8l0.1,0.9l1.1,0.1l0.6,1
		l-0.8,0.6l-1.6,0.7v0.7h-1.8l-0.3-0.7h-0.8l-0.1-0.5l0.9-0.3v-0.7v-1.1l-0.8-0.2v-0.4h0.8v-1.2l-0.6-0.3v-0.8h-1l-0.6-0.4l-1.1-0.8
		l-5.1,0.2l-0.2,0.8l-2.3-0.2l-1.1-0.9l-0.4-0.5l-0.4-0.6l1.1-0.5l1.4-0.5l1.1-0.7l0.7-1l-0.3-1l-3.2-2.8h-4.5v-1.5l-0.3-0.9
		l-0.9-0.8l-0.2-1.2v-1.5l-1.1-0.1l-0.2,1l-1,0.3l0.3,1l0.5,0.6l0.1,1l-0.5,0.4l-1.5,0.3l-2.8,1.2l-1.5,0.1v-1.4l0.6-0.5v-0.9v-1.9
		l-0.8,0.4h-1.5l-0.4-0.3l-0.7-0.5l-0.8,0.4h-0.6l-1.3-0.9l-1.7-1.3l-0.3-0.4l-1.5-2.1l-0.8-1.3l-0.4-0.1H527h-0.4l-0.3,1.7h-0.7
		l-1-0.9l-0.2-0.7l0.1-0.5l0.4-0.4l0.8-0.8l-1-0.9l-1.1-1l-1.4-1.3l-1-0.9l0.1-0.8l1-0.3l0.9-1.3l0.3-1.2l1.1-0.8l1.2-0.6l0.6-0.7
		l0.3-1.8h-0.9l-0.1-1.7h0.7v-2.3l1.7,0.4l1,0.2l0.5,0.7l1.7-0.3l2.1-1.4l0.2-0.6h-1l-0.1-1l-0.1-1.8l0.5-0.3v-2.6l-0.8-1.3
		l-0.2-1.1l1-1.2v-3.6l-1.1-0.9l-2.2-2.4l-1-0.6v-0.6l0.8-0.5l0.5-0.7l-0.1-1l-2.9-3l-2.7-1.9l-1-1.2l-0.7-1.3l-1.6-1.7l-0.2-0.5
		h-1.2l-0.3-0.2l-0.7-0.3l-0.8-0.9l-0.2-0.4l-1-0.5l-0.9-0.4l-1.2-1.3l-0.8-0.4l-0.7,0.5l-2.1,0.2l-1.3,0.9l-1.2-1.6h-0.7l-0.8-0.2
		l-1.5-0.3l-0.1-4h-0.5l-0.2-5l0.5-2.1l1.7-0.9l-0.1-1.7l0.5-3.1l1.4,0.1l0.9,0.4l1.4,0.7v2h0.1h0.2h0.3l0.7-0.3l1.4-0.6l0.6-0.3
		l0.1-2.7l-0.6-0.7l-0.7-0.5v-2.5h0.9l-0.1-1.3l-1.3-1.3v-2l1.5-0.2l0.5,0.6h0.8l0.2-0.7l1-1.1l2.1-2.7h0.7h1.1l0.1-1.1l0.5-0.9h1
		v-1.3h-1.6v-1.2l-0.9-1.4l-1.4-0.9l-0.3-1.6l1.7-0.8v-2.1h-0.3l-0.4-1.9l-1.1-0.6l-0.1-0.3l-0.1-0.6l-0.1-0.4l-0.1-0.6l-0.2-1
		l0.9-1.9l1.1-0.9l1.3,0.1l1.3-0.2l2.5,2.7l1.6-0.1v-0.7l0.6,0.1l1.2,0.2l1,1.3l2.2,1.4h2.4v-0.3l2.4-0.3l1,0.6l0.8-0.3l1-1.2
		l0.6-1.3l0.6-1.3l1-2l2-3.1l-0.4-0.6l-2.1-0.3l-1.1-2l-0.8-0.5v-4.4l-1.1-0.4v-1.2l0.6-0.3l0.3-2.5h0.6v-1.9l0.9-1.2v-0.7l1.4-1
		l0.1-2h-0.3v-0.6v-2.2l2.9-2.8l0.1-1.1l-0.8-0.2v-1.6l0.7-1.1l0.7-0.4l2-0.4V79l1.5-0.9l0.4-0.9v-2.4l0.8-0.3l1.1-0.2l1.6-0.1
		l0.6,0.6l0.7-0.5l0.4-1.1l-0.2-2L554,71l1.8,0.1l0.8-0.6l0.9-0.5l-0.1-0.8l0.7-0.4l0.7-0.5l1-0.9l1-0.5l0.5-0.8l-0.1-0.1l-0.2-0.2
		l-0.3-0.4V65L560.5,64.5z M551.2,84.1l-0.5,0.4l-0.4,0.7l-0.3,0.6l-0.2,0.5l0.3,0.6l0.4,0.4l0.6,0.4l0.7,0.2l0.7-0.2l0.6-0.5
		l-0.2-0.6l-0.3-0.5l0.1-0.4l-0.4-0.4l-0.5-0.5L551.2,84.1z M548.9,87.1l-1.1,0.3l-0.7,0.2l-0.3,0.4l0.2,0.9l-0.1,0.6h1.1l0.7-0.3
		l0.4-0.9L548.9,87.1z"/>
	<text id="XMLID_60_" transform="matrix(1 0 0 1 547.9149 141.0671)" class="st1 st2 st3">阿拉贡</text>
</g>
<g id="asituliyasi">
	<path id="XMLID_59_" class="st0" d="M300.7,55.7v-2.8l-1.1-1.8l-2.1-0.5l-1.2-2h-0.8v1.8l-1.1-1v-0.8l1.2-1.2l1.2-1.9l0.8,0.8
		l0.8-0.3l1.4-0.9l1.8-1.5l0.5-1.8l-0.5-1.5l-1.1-0.7l-0.5-0.9l-0.5,1.3l-1.4,1.2l-1.3,0.4l-0.9,0.1l-0.5-0.8l-0.2-1.1h0.6l0.1-2.3
		h-1.2l-0.9-1l-1-0.7l-1.1-1.1v-1.6v-0.3v-1.3l-1.9-0.5l-0.6-1.1v-1.2v-0.8h0.3l0.1-1.2l-0.4-0.6h-1h-0.5V27l-0.7-1v-0.6l0.7-1.2
		h1.9h1.3l1.3-1.9l0.9-0.7l0.2-1.9l0.2-1.8l0.9-1l2.3-0.4h2.6h0.5l2.1,0.2l0.8-0.2v0.9l1.8,0.1l0.4-0.9h0.9l0.6,0.7l3.3,0.2v-0.9
		h1.6v0.9l0.7,0.1l0.5,0.5l2.3-0.1v0.8h2.4v-0.6l0.9-0.2v-0.4l0.7-0.2V18l0.6,0.6l1.2-0.1V18l1.6,0.2l1.7-0.2l2.9-0.7l1.2-0.7h1.1
		v0.9L330,18l1.9,0.2l0.7,0.1v0.5l2-0.3l1.5-0.2l0.4-0.8l2.9-0.1l1.5,0.1l1.6-1.8V15h1.8l0.9-1.6h0.5l0.6,1.1h1.2l1.8,3.3l1.4,0.5
		l0.7,1.7l2.9-0.1l0.9-0.4V20h8.9l0.8,1.2h4.1l2.9,3.7L378,25l1.1,1.1l5.1-0.1l2.6,1.2l2.4,0.2l4.3,1.8l1.6-0.1l2.1,0.6l2.3,0.2v0.5
		h1.2v-0.5l1.2,0.1v1.3l-1.2,0.2l0.1,2.3l0.5,0.2l0.2,3.1l-0.7-0.1l-0.3-0.6l-1.5,0.2l-0.5-0.1h-0.6h-0.2l-0.5-0.3l-1.9,0.2
		l-0.9-0.1l-2.6,1.6l-0.2,1.2c0,0,0.8,1,1,2.3l-2.3,1.1l-2.9-0.4l-0.3-1.8l-0.3-0.9l-1.2-0.4l-1.9,0.2c0,0-2.8,1.9-3.1,3.4L380,42
		h-2.4c0,0-1.6,0.5-1.8,4.9l-1.2,0.1v-0.8h-1.2l-0.1,0.7l-1.7-0.2v0.9l-3-0.2l-0.2,0.7h-0.5l-0.1-0.6l-2,0.2l0.1-0.9l-2.3,0.1
		l-0.1,2.2l-4.4,0.2l-0.2,1.2h-1.5l-0.3,0.6l-1-0.2l-1.2-1.1L353,50l-1.4-1.2h-1.9c0,0-1.9,0.2-3.1,4.7l-3.1,0.1l-1.7-1.1l-1.4-1
		l-0.9-0.5l-0.9-2.8l-0.3-0.7l-0.9,0.2l-0.2,0.4l-1.6,0.2v-1.1l-2.5,0.1l-0.5,2l-0.8,0.6h-0.7l-1-1.4h-2.5v1.1l-1.6,0.3l-0.5-0.7
		l-2.3-0.2l-0.2-0.7l-1.2-1.2l-2.3,1.5l-0.2,1.1l-0.6,0.1l-0.1,1.6l-1.7,0.2v-0.5l-1-0.2l-0.3,2.6l1.8-0.1l-0.1,1.3l-3.6,0.1
		l-1.2,0.7H310l-0.9-0.8l-2.6-0.2l-2,0.9l-0.2,0.9h-1.2l-0.6-0.9h-1.8L300.7,55.7L300.7,55.7z"/>
	<text id="XMLID_58_" transform="matrix(1 0 0 1 304.6209 39.3403)" class="st1 st2 st3">阿斯图里亚斯</text>
</g>
<g id="basikequ">
	<path id="XMLID_57_" class="st0" d="M473.7,70.1v-1.8l1.1-0.5L476,67l1.2-0.4h1.8l1,0.6l1.1,0.4l2,0.5l2.3,0.3h0.5h0.9l0.4,1.7
		l-0.6,0.5l-0.2,0.9h-1.6l-0.6,0.6l0.5,0.9l1.2,0.5h1.4v-0.7l1.7,0.1v2.9h-1.8h-1.7l-0.4-0.7l-0.6,0.7l-1.3-0.8l-0.5-0.6l-1.3,0.1
		l-0.5-0.6l-1-0.1l0.1,0.7h-2.3l-0.1-1.2l-0.5-0.9l-1-0.2l-0.5-1h-0.9l-0.3-0.7L473.7,70.1z M457.2,42.9l0.6,1l1.9-0.2l0.5-0.4
		l1.6,0.7v1l-0.5,0.2l-0.5,0.9l-0.8,1.3l1.7,0.4l0.5,1.2l-0.9,0.3l-0.2,0.6l0.5,0.2l-0.1,3l-0.5,0.1l0.1,0.5l3.5,0.1l1.1,0.9
		l0.1,1.5h0.6l0.8,0.7l0.7,0.7l0.2,1.1l-1.2,1.3l-4.3,0.2l-1.1-0.4l-0.9-0.3l-0.5-1.2h-2l-0.3,0.5l-0.9,1.2l-1.5,1.6l1.2,1.6
		l1.2,0.5l0.6-0.5V62l0.9,0.1l0.2,0.6l1.2-0.1l0.4-1.3l1.8,0.2l0.3,1.5l-0.9,1.4l-1.3,1.4l0.5,0.5l0.8,0.8l0.1,1.1l1.2-0.2h1.1
		l1.3,0.2l-0.2,1.9l1.1,0.1l0.7,0.1l0.7,1.4l0.5,0.2l0.2-0.5h0.5l1.4,1.1l1.5,0.3v2.3l1,0.5l1.1,0.9l0.3,1.1l-0.6,0.6l0.5,1
		l-0.6,0.3l0.1,1l0.5,0.3l0.2,0.6l3.1-2.1l-0.6-1.8l0.4-0.6l1.3,0.1l1.9,1.9l0.5,0.2l-0.1,2.6l-0.3,0.5v0.9l1,0.2l0.9,1.6h0.9
		l0.2-0.6h0.9l0.5,0.6h1.9l0.4-0.6l0.4-0.7l1.1-0.3l0.4,1.6h0.6l1-0.4l1.6-0.9l0.8-1.5l0.6-1.5h-0.7l-0.2-2h-0.6l-0.1,0.9l-0.5,0.7
		h-0.9l-1.2-0.6l-0.7-0.7l-0.4-1.2l0.8-0.7l1.9-1.9l0.9-0.8l2-0.1l0.2,0.5l0.5,0.6l0.5,0.5h0.5l-0.2-1h1.1h1.2l-0.2-0.8H497l0.4-2.3
		l-0.7-0.5l-0.2-1.2h0.5h1.4l0.2-0.5l0.6-0.6L499,68h-0.6l0.2-1.2h0.6L499,65l0.5-1.1l0.9-2.7l0.4-0.7l0.4-0.8l0.4-0.8l0.3-0.5
		l0.7-0.6l0.4-0.4l0.3-0.3l0.3,0.4h2.1V57h0.6v-1.6h2.2l1.3-0.5l-0.6-0.5v-2.3l0.4-0.6l0.1-1.2l1.8-1.2l4-2.3l-0.1-1.4l-0.3-0.9
		l-0.5-1.2l0.1-0.6l0.7-1h0.6h0.5h0.5l0.6-0.1l0.3-0.2l0.8-0.6l1.5-0.7v-2.2l1.8-0.6l0.4-0.1l1.6-1.1l-2.3-1.5v-0.5l-0.9,0.1l-1.1-1
		v-1.3l-1.6-0.2l-0.5,0.6l-0.7,0.5l-0.7,1.5l-1.6,0.5l-2.3,0.5l-0.5,0.3h-1.5l-1.1,0.5l-1.1,0.4l-1.9,0.7l-0.8,0.9l-0.9,0.2
		l-1.1-0.3l-1.4-1.1l-2.1-0.2v0.5h-4h-0.5l-1.2-0.9l-2.9-1.7l-2.3-2.2l-1.7,0.1l-0.5-0.6l-1.9-0.2l-0.9-0.2l-0.9-0.8l-1.2-0.3
		l-1.4-0.2l-1.6-0.9V28h-1.1l-0.9,1.2h-6.5v1.2l-3.3,1.9V33l0.7,0.9v1.5h-1.2l-0.9-0.6l-1.1-0.7l-0.5-1.1l-0.8,0.6v0.6h-1.2v2.5
		l-0.5,0.5l-2,0.5l-1.2,0.2v-0.5l-1.2-0.8l-0.9,1h-1.2v-0.5h-1.6v1.1v0.6h-1h-0.4h-0.5v0.5l-1,1.2l-1.5,0.3v1h0.7v3v0.8h1.4l1.2-0.6
		l1.2-1l1.4-0.5l0.6-0.6H457.2z"/>
	<text id="XMLID_56_" transform="matrix(1 0 0 1 461.5692 49.5953)" class="st2 st3">巴斯克区</text>
</g>
<g id="baliali">
	<polygon id="XMLID_55_" class="st4" points="669,285.2 670.3,285.2 670.3,284.2 671.3,283.6 672.5,283.6 673.4,282.9 673.9,282.2 
		675.4,282.2 676.2,281.6 677,281.6 678,282.7 679.2,283.4 680,283.4 680,284.2 680,285.2 680.8,286.2 680.8,287.2 680.3,287.2 
		679.8,288.4 678.9,289.2 677.9,289.2 677,290.6 677,292.2 675.8,293.5 674.9,294.4 673.1,294.4 672,295.5 671.5,297 671.3,299.4 
		669.9,299.4 669.6,298.2 669,297.4 667.5,297.4 666.5,297.5 666.5,296.7 665,296.7 665,297.6 664.3,297.6 663.4,297.4 663.4,296.4 
		662.6,296.2 662.6,294.7 663.2,294.2 663.4,293.7 663.5,293.1 662.6,292.6 662.6,291.5 663.3,291.5 664,291.7 664.9,291.4 
		666,291.4 666.2,290.9 665.3,290.1 665.7,288.7 666,287.6 666.8,286.4 667.9,285.7 	"/>
	<polygon id="XMLID_54_" class="st4" points="673.6,304.7 673.6,303.6 673.6,302 672.2,301.5 671.7,302.1 671.7,302.7 672.6,303.2 
		672.6,302.6 672.6,304.2 672.6,305.2 671.7,305.2 671,305.2 670.4,306.5 670.9,308.4 670.4,309.5 670.9,310.4 671.7,311.2 
		672.7,310.1 673.6,309.5 673.6,308.5 674.5,308.5 675.5,308.6 676.5,309.1 676.5,309.6 677.2,309.7 678.7,310 680,310 680.8,308.9 
		679.8,307.2 678.2,307.2 677.9,308 676.3,307.7 675.6,307.1 674.6,305.7 673.5,305.4 	"/>
	<polygon id="XMLID_53_" class="st4" points="741.7,274.7 741.7,273.7 743.1,273.7 743.1,274.7 743.1,275.5 743.1,276.6 
		742.4,277.4 741.7,277.7 739.9,277.7 739.9,276.2 739.9,275.7 741.1,275.2 	"/>
	<polygon id="XMLID_52_" class="st4" points="712.5,252.2 710.8,253 710.1,252.2 711.3,250.7 713.2,249.9 715.2,248.7 716.7,247.6 
		718.1,246.5 719.1,245.6 719.8,244.2 721.6,244.2 722.5,243.2 724.1,241.9 725.1,240.6 727.1,238.1 728.8,236.6 730.7,235.4 
		731.6,234 733.3,233.2 735.3,232.7 736.3,231.2 737.6,231.2 738.2,230.2 739.9,230.2 740.9,229.1 742.3,229.1 744.2,229.1 
		745.2,228.5 746.5,228.5 747.6,227.2 748.8,227.2 750.6,228 749,228.9 747.8,229.2 747,229.4 746.4,230.2 745.4,230.2 745.3,231.5 
		745.5,233 747.7,232.7 748.3,231.7 749.6,230.9 750.6,230.4 750.6,231.4 750.1,232 750,232.9 750.6,233.6 749.6,234.5 748.8,234.7 
		747.4,235.1 747.6,237.2 749,238.5 750.6,238.9 752,239.7 752.8,240.1 754,240.1 755.1,239.6 756.2,238.6 756.8,237.9 756.8,236.7 
		756.8,236.2 758.3,236.4 758.9,237.7 760.5,238.7 762,239.2 762.8,238.9 762.8,240.7 763.8,240.5 763.3,241.9 762.6,241.9 
		762.6,243.7 763,244.9 762.5,245.9 761.2,246 759.9,246.2 760.1,247.7 760,248.7 760.9,249.1 760,249.7 759.4,250.4 758.9,251.5 
		757.6,252.2 756.7,253 756.1,254.2 755.9,255.5 755.6,257.9 755.4,259 754.9,260.1 754.4,261 754,262.2 753.1,263.1 752.3,263.6 
		751.7,264.6 749.9,265.5 748,267.2 747.3,268.2 746.4,269.2 745.3,269.2 745.2,268 744.6,267.4 744.3,266.7 743.1,266.2 743.1,265 
		740.9,263.6 738.9,264 737,263.7 736,263.7 734.4,263.7 732.7,263.5 731.6,261.9 730.9,261.1 731.4,259.7 731.4,258.9 730.8,258.2 
		730.3,257.7 730.7,256.5 731.1,255.4 730.9,254.5 730,253.7 729,253.2 727.5,252.6 726.4,252.2 725.3,252.2 724.9,253.4 
		724.2,253.7 724.1,254.7 722.1,254.7 721.6,255.9 721,257.9 721.2,259.1 720.1,259.2 718.4,258 718,256.7 718.3,255.2 717.8,254.4 
		717.1,254.4 716.1,254.4 715.5,255.2 715.1,256 713.8,255.6 712.9,254.7 712.8,253.7 712.8,253.6 712.8,253.1 713.3,252.9 
		713.2,252.2 	"/>
	<path id="XMLID_51_" class="st4" d="M776.8,222.2v-1l0.3-0.8l0.3-0.3l0.5-0.7l0.7-0.5l1.3-0.4h1h0.8h1.1h0.7h1l0.9-0.3l0.8-0.3
		l1.1-0.2l0.4-0.3l1.3,0.3l0.6-0.3v-0.8v-0.7h0.8l0.3,1.5l0.6,0.3l0.6,1l-0.2,0.7h0.8h0.5l-0.2-1.4l0.2-0.7h0.4c0,0,0.5,0.5,0.5,0.6
		s0,0.9,0,0.9l-0.2,0.5l0.9,0.2h1v1.4l0.9,0.4l2,0.2l0.3,1.4l0.3,0.6l0.7,1.6l0.7,1.3v0.6l-1.3,0.3v0.5l1.3,0.2l0.5,1.2v1.2
		l-0.3,1.1l-0.5,0.9l-1.5-0.2l-1.7-0.4l-0.3-0.3l-1.4-0.7l-1.2-0.8l-0.8-0.3l-1.2-0.7l-1.5-1l-1.1-0.7l-0.2-0.6h-2l-0.6-0.6
		l-0.9-0.1l-0.6-0.5h-1.3l-0.1,0.7h-1l-0.3,0.5l-3.5,0.2v-1.2l0.5-0.7l-0.1-0.8l-0.8-0.9l-0.1-1L776.8,222.2z"/>
	<text id="XMLID_50_" transform="matrix(1 0 0 1 682.8065 284.9331)" class="st2 st3">巴利阿里</text>
</g>
<g id="katabuliya">
	<path id="XMLID_49_" class="st0" d="M402,30.2l1.9-0.2v0.7h1.9v-0.6h1.2v0.7h1.9v-0.7h0.8v0.7h0.5v0.5h0.7v-0.6h1v0.6h0.6v-0.6h3.3
		l4.3-1.1l1.7-0.7l1.3-0.5v-0.6h0.6v0.5h1.2l1.8-1.2v-0.7h4v-0.7l1.2-0.5h0.9v1.2l-1.8,1.2l0.2,0.7h0.5l0.1,2l1.1-0.3l0.8-1.3
		l0.9-0.3V29l1.2-0.1v-1.6l0.9-0.2V26h0.9v0.4l0.5,0.2l1.2-1.3h1.9l1-1.2h1l0.6,0.7l1.6,1.7l1.2,0.1v0.6l2,0.1v0.5l-2.3,0.7v0.8
		l0.5-0.5h0.7l-0.1,1.2l0.5-0.1l0.1-1.1l0.6,1.2l1-0.1v-0.5h1.2l0.5,0.6h1.8v0.6l0.9-0.1V30l0.9,0.1l2.3,0.6l4.4,2.9v2.5l-0.5,0.5
		l-3.3,0.8V37l-1.2-0.8l-0.9,1h-1.2v-0.4h-1.6v1.7l-1.7,0.2l-0.8,1.2l-0.4,0.4l-1.5,0.3v1h0.7v3l0.1,1.2l-1.3-0.2l-3.6-0.2l-0.2-0.7
		l-3.3-0.2l0.2-1.2l-1.2-0.5l-1.1-0.1l-0.6,1.4l-1,0.9l-1,2.3h-1.7l-0.5,1.9l-1.5-0.8l-2-0.1l-0.2,2.2l-1.9,0.5c0,0-4.9,2.8-3.9,8.1
		h1.5l1.3,1.2l0.3-1.2l1.7-1.8l1.1,0.1l0.2,1.4l-0.7,0.8l-1.1,0.1l-0.9,0.7l-0.3,0.9l-0.2,1.1l2,0.4l0.6-1.3l0.9,0.2l-0.2,1.6h0.5
		l0.5,2.4l-1.2,0.7h-0.9l-0.5-1.2l-1,0.1l-0.5,1.2l-0.8,0.9l-1,0.4h-1.2l-0.2-3.6c0,0-1.2-1.9-1.8,0.2l-0.1,1.6l-1.2,0.6
		c0,0,0.2,1.4,0,1.3s-1,0-1,0l-0.2-2.1l0.5-0.2l-0.2-1.3h-0.8l-0.6-0.1l0.2,1.7l-1.3-0.1H417l0.4-1.2l1.4-1.2l0.4-0.9l-0.7-0.6
		l-1.1-0.9l-0.9,0.7l-0.9,1h-1v-4.2l-0.5-0.1l-0.1-2.6l-3.6-0.6l-1.7-0.8l-0.4-1.3l-0.7-1.6l-0.6-0.6l-0.9-0.2l-0.7-0.6l-1.2-0.5
		l-1,0.3v0.8l-0.6-0.2l-1.6-0.2l-0.5,0.9l-1.8,0.2v-0.5l-1.3-0.1v0.5l-5,0.2V51l0.6-0.2l-0.6-1.2l-0.7-0.1v-0.9l-3.4-2.4l-0.4-1.6
		l0.4-1.3l0.9-0.4l1.3-0.3l0.3-0.6l1.2-0.5l1-0.6l-0.2-1.2l-0.1-0.8l-0.8-0.3l0.2-1.2l1.5-0.9l1.1-0.6l0.9,0.1l1.9-0.2l1.8,0.4
		l2.5,0.5l-0.1-1.9l-0.1-1.2l-0.5-0.3v-0.8V32v-0.9l1.2-0.2v-0.7L402,30.2L402,30.2z"/>
	<text id="XMLID_48_" transform="matrix(1 0 0 1 391.5506 44.0682)" class="st2 st3">卡塔布里亚</text>
</g>
<g id="kadiliya">
	<path id="XMLID_47_" class="st0" d="M362.2,225.7l1.1,0.1l2.2,0.3l2.2,0.3l-0.2,1.5l1.2-0.2l0.5-0.1h0.2l1.1-0.2l0.7-0.5l1.1-1.2
		l1.2-1l0.4-0.5l2.2-0.4l0.8,0.9l-0.2,1.6h1.1l1.1-1.1l1.3-0.4v-2.2h1.6l0.5-0.9l2.6-2.3l0.1-1.7l0.5-1.1l1.2-0.2l0.7,0.5v0.7
		l1.2,0.1l0.6-1.3l1.9-0.1l0.4,4.4l0.8,0.5l2.4-0.1l1-0.3l0.7,0.1l-0.1,0.7l2.9-0.4l0.6-1l1-0.3l1.3-0.3l0.8-0.7l0.5-0.7l1.5-1.8
		v-1.3h1.2l0.4,1.1v2.6v1l1.7,0.8l0.5,0.3l1.3-0.9l1.2-2.2l1.7-0.1v-1.2l0.8-0.6l0.7,0.5v0.8l1.1,0.5v1.2h1.6v0.6l0.6,0.2l0.5-0.9
		l0.7-0.6l1.1-0.1v0.9l1.3,0.7l0.7,0.9l1.1,0.8l1.4,0.2l0.6,0.2l0.8,0.2l2.4,0.7l0.5,0.5l0.5,0.9l0.5,0.4l0.9-0.7l0.6-0.5l0.7,1.1
		l0.5,0.9l0.8,0.8l0.5,0.5l0.4-0.9l0.8-0.6l0.6,0.6l0.6,0.6l1-0.5l0.6,0.4l0.7,0.6l0.5,0.4h0.5l0.5,0.6v0.8l-0.5,1.2l-0.5,1.1
		l-0.3,0.7l-0.9,0.5l-0.8,0.5l-0.9,0.5l-1,0.7l-0.2,1.2l-1.3,0.7l-0.6,0.6l-0.9,0.9h-1.6l-0.8,0.7h-1.4l-0.8,0.8l0.3,1.3l1.4,0.6
		l1.4,0.4l1.3-0.7l1.9-2.3l0.8-0.5l1.6-0.4l1.2-0.5l1.2-0.2l0.3-0.9l0.5-1l0.6-0.2l0.9-0.2l0.6-0.5l2.3-0.2l0.5-1.2l0.3-0.7l0.9,0.2
		l0.8,0.1l1.3,0.3l0.7,0.1v-0.7h0.9v0.7l0.8,0.2l0.4-0.9v-0.9l0.4-0.6l2.3-0.1l0.9,1.2l0.5,0.1l0.6,0.2l0.7-0.1l2.5-0.1l0.9-0.7
		l0.1-0.5v-0.7l0.8-0.2l0.2,0.5l0.3,0.9l1,0.5h1l1.1-0.6l1.3-1v-2l-1.1-0.6l-0.2-0.8h0.7h0.7l-0.1-1.3h-1v-2.9l0.1-1.2l-0.1-2.1
		l-0.6-1.1l-0.7,0.2l-0.6,1l-1.6,0.8l-0.8,0.8l-0.4-0.5l-0.2-0.4l0.3-1l0.2-1l0.3-1.2l0.7-1v-1l0.6-1v-0.8v-0.6V211v-1.3V208
		l-0.4-0.8l-0.6-1.4l-0.7-1.6l-0.5-0.5l-1-0.9l-1.4-0.5h-1.4v-1.9l-0.4-0.4l-0.8-0.4l-1.1-0.4v-2.3l-0.5-1.2l-0.7-0.5l-0.5-1.1
		l-0.5-0.5h-1.2h-0.9l-0.8-0.5l-0.1-0.9l0.8-0.5l0.5-0.9l-0.5-1.9l-0.5-1.2l-0.9-0.8l-0.7-0.4l0.2-1.6l0.5-1.2l0.3-1.3l1.1-0.5
		l-0.2-1.6l0.2-2l0.7-0.8l0.1-1.4l0.7-1l0.5-1.1l-0.5-0.9l-0.7-0.8l-0.5-1.2l-0.2-1.7l-1.2-0.4l-0.9-0.9l-0.8-1.5l-0.9-0.5l-0.6-0.7
		v-0.6l1.2-0.5l2-2.1l0.9-0.9l1.5-0.2l-0.1-0.8l-0.1-0.7l-0.4-0.5v-1l0.8-0.1l0.5,1.1l4.2-0.4l1.1-0.6l1.6-0.8l1.3-0.9l-0.2-0.9
		l1.6,0.1l0.2,0.8l1.5-0.1l0.2,0.7h1.9l1.8,0.5l1.2-0.4l3.6-0.3l-0.1-0.7l0.5-0.5l1-1.1h1.7l1,0.5l0.1,2l0.1,1l1.2,0.7l2.3-0.1
		l0.2-1.2l2.8,0.2l0.4,1.3l0.6,0.5l0.6,0.6l1.7-0.1l1.3,0.6l1.2,0.2l0.2,0.9l-1.2,0.7v0.6h0.9l0.3,0.7l-1.7,1.7l1.4,0.3l0.8-1.4h1.2
		l0.6,1.2l0.6,1.2l1.2,0.7l0.1,1.2l0.1,1l1.2,0.2l0.6,0.2l0.6,0.2l0.8-0.7l0.4-0.4l1.8,0.2l0.4,1.2l0.8,0.1l0.3-0.9h1.1l1.8-1.7h1.2
		l0.4,0.5h1.2l1.7-1.3l0.9,0.1l0.7,0.4l0.4,0.3l0.9,0.6h0.5l0.2-0.2v-0.5v-0.9v-0.4v-0.9l1.3-0.9l1.2-0.2l0.9-0.1l0.7-0.5l1.2,0.7
		l0.8,1l1.2,0.6l0.7,0.2l0.7,0.9l1.4,0.9h1.2l0.5,0.9l1.3,1.2l0.7,1.3l1,1.2l1,0.9l1.7,1l0.9,0.9l0.7,0.7l1.3,1.3l0.1,1l-0.5,0.7
		l-0.8,0.5v0.6l1,0.6l1.5,1.6l0.8,0.8l1.1,0.9l-0.1,3.6l-0.7,0.9l-0.3,0.3l0.1,1l0.8,1.4l0.1,0.9v0.7v1l-0.5,0.3l0.1,2.8h1l-0.2,0.6
		l-1.4,1l-0.8,0.6l-1.6,0.2l-0.6-0.8l-0.9-0.2l-0.8-0.2l-0.9-0.2v0.9v1.5h-0.7l0.1,1.7h0.9l-0.1,2L526,205l-1.3,0.7l-1,0.7l-0.3,1.2
		l-0.9,1.3l-1,0.3l-0.1,0.8l4.5,4.2l-0.5,0.5l-0.6,0.6l-0.2,0.5l0.2,0.7l0.5,0.4l0.4,0.5h0.7l0.2-1.8l1.4,0.1l1.2,1.8l1.6,2.2
		l1.6,1.2l1.4,0.9h0.6l0.8-0.4l1.1,0.9h1.5l0.8-0.4v2.8l-0.6,0.5l-0.1,0.9l-0.1,0.8l1.6-0.1l0.6,1.1v1.7l0.5,1.2l0.9,1v0.8l1.4,0.2
		l1.7,0.1l0.7,0.5h2.5l1.2-0.1l1-0.2l1.3,0.2l0.7,0.9l-0.5,1.3l-1.3,0.1l-0.9,0.6l-0.3,1l0.3,0.8l0.4,0.3l0.2,3.9h-1.2v2.5l-0.7,0.5
		l-0.1,1.2l-1.6,1.6l0.2,3l0.3,0.6l-0.5,0.7l-0.7,0.6h-1.1l-1.1-0.5l-0.5-0.7l-0.8-0.1l-2.4,2.4l-0.6,1.1l-0.9,1.6l-0.2,1.6L537,259
		h-1.2l-0.2,1H535v1.2h0.7l-0.1,4.4h-0.7l-0.1,1.8l3.2,4.1l3.6,0.5l1.6,1.3l0.9,0.4h1.5h2.4l1.6,0.7h1l0.7,0.4v5.8l-3.5,6.8
		l-0.4,1.4v1.6c0,0,4,4.2,6.2,7.1h2.8l0.6-0.5l2.8,0.1l-0.1-0.9l2.5,0.2l-0.1,1.9l0.6,0.6l0.6,0.6v2.2l0.1,4.3l-0.2,0.3h-1.6
		l0.2,1.2l1,0.4l0.4,1.6l0.8,1.1v0.8l-1.1,1.1l-1.3,1.4h-0.9h-0.4h-0.9l-0.3-0.2h-0.8c0,0-2.9-2.9-4.1-5.1l-0.5-0.5l-4.3,0.2
		l-1.1,0.5l-0.3,0.8l-0.6,0.4l-0.5,0.8l-0.9,0.4l-0.6,0.9l-0.5,0.7l-0.7-0.2l-0.2-1.3l-0.5-0.5l-1.3,0.3l-2.4,2.7l-0.2,2.6l-0.6,1.8
		l-0.8,0.9l-1,1.8l-0.1,1.6h0.8l-0.1,1.4l0.7,0.4v6.5l-0.8,1.1l-1.1,0.8l-1.2,1l-1,0.9l-1,0.4l-1.5,0.5H530l-0.9-0.9l-0.9-0.7
		l0.2-0.8l0.5-0.3v-0.6l-0.6-0.5h-1.9l-0.9-0.3l-0.9-0.1l-0.6,0.9l-0.4,0.5l-1,1.3h-1l-1.4,1.4l-1.2,0.9h-0.8l-2.8,1.2l-1.4-0.1
		l-1.3-0.4v-0.7h-1.1l-0.3,1.4l-0.5,0.7l-1.1,1l-0.8,1.2H508l-1,0.3l-0.8,0.4l-0.9,0.7l-0.5,1.2l-0.6,1.2l-1.1,1.6l-0.6,1l-1.1,0.9
		l-0.8,1.2l-1.2,0.5l-0.5,1.4l-0.2,1.6h-1l-3.2-0.7l-1.6-0.9h-1.1l-0.5-0.7l-0.2-0.2l-1,0.1l-1.2-0.8l0.3-1l0.9-0.6l0.4-1l0.5-0.6
		l0.5-0.6l0.5-0.6l0.6-0.7l0.6-0.7l0.1-2.6l0.9-0.2v-1.7v-2l-1.1-0.2l-0.3-0.3l-0.5-0.5v-0.9v-1.1v-0.8l-0.7-1.4l-0.2-1.5l-0.8,0.1
		l-0.6-0.7h-2.1V328v-3.3l-1.2-1.1h-0.9l-1.4,0.5l-1.2,0.7l-1-0.2l-0.6-0.4l-1.8-1.3l-0.5-0.2l-1.1,0.3l-4.8,4.3h-0.8l-0.3-0.6
		l-0.9-0.6h-1.6l-0.9,0.6l-0.6,0.7l-0.4,1.1l-0.4,0.8l-0.2,0.4l-1.1-1.3l-0.9-1.3l-0.5-0.8l-0.4-0.6l-0.8,0.6l-1,0.8l-0.6,0.5
		l-0.5,0.4l-2-0.2l-0.6-0.6h-0.8h-2.9l-0.2-0.5h-0.9l-0.7-0.4l-0.5-0.8l-1-0.1l-0.5,0.6h-0.7h-0.6l-0.2,1.7l-0.4,0.4l-0.4,0.4
		l-0.5,0.4l-0.5,0.4l-1.2,1H446h-1.4l-0.3-0.7H443v-1.8h-1.1l-0.2-0.7h-0.6l-0.5,0.8v1.4v1l-0.6,0.1h-2l-0.7-0.7l-1.5-0.3l-0.7-0.1
		l-1-0.4h-0.7l-1.3,0.1l-2.2,0.1l-0.6,0.3l-0.2,0.5l-0.3,0.8l-0.3,0.8l-1.6,0.1l-0.3,0.8h-6.3l-0.2-1h-1.4l-2.8-0.2l-1.3,0.2
		l-1.2-0.3l-1.6-0.9l-3.3-0.1l-0.3,0.7v1.3l-0.2,0.6l-0.3,0.3l-1-0.3l-0.7-0.5l-0.7-0.8h-1.1l-1.2-0.7l-1.4-0.3l-0.6-0.5l-1.4-1.2
		l-1.2-1.6l-1.2-1.2l-0.6-0.5l-0.7-0.5l-0.9-0.7l-1.2-0.1h-1v-1l-1-0.9l-1.5-1.5l-1.7-0.4l-0.6-1.1l-0.8-0.5l-1.5-0.8l-0.6-0.3
		l-2.3-0.2l-0.6-0.5l-1.3-1.1v-0.7l0.1-3.1h-3.1l-0.7,0.9l-0.5-0.9l-1.4-0.1l-1-1.6l-0.4-0.8l2-1.2l0.4-0.7V307v-1.6l0.9-0.3v-2.4
		l0.5-1l1.4-1.6l1.7-0.5l1.4,0.5l0.8-1.7v-1.6l-2.3-0.3l-0.5-0.3l-1.8-1.3l-0.1-1.2l-0.4-0.2l-0.1-2.1l-0.5-0.2l-0.2-0.8v-0.6
		l1.7-0.3l2.2,1.8l1.2-0.1l1.6-1.1l-0.4-0.7l-0.9-0.1l-0.9-1v-1.6l0.8-0.4v-1.4l0.4-1.3l1.6-1.6l2.5-0.3l1.1-0.1l1,0.7l1.7,1
		l0.8,0.2v-0.9l-0.7-0.3l0,0l-1.5-1.5l-0.4-2.1l-1.1-0.5v-1.4l-0.4-0.7l-0.1-2l0.4-0.5l1.9-0.2l-0.3-0.9l1-1.9l0.3-1.6l0.6-1
		l-0.3-0.8l-1.2-0.1l-2.7,1.6l-1.2,0.7l-2.1,0.5l-1.4,1l-1.4,0.5l-2.3-1.7l-1.5-1.1l-1.1-1.1l-0.9-1.1l-0.4-0.6l-1.2-2.1l-1.3,0.2
		l-1.3-1.3l-0.8-1.3L369,260l-1.3-1.4l-0.9-0.8l0.3-1.5l1.2-1.1l0.1-1.4l0.5-1.4l-0.1-1l0.7-0.8l0.5-0.4l-0.9-1.4l-0.7-0.2l-0.3-0.8
		l0.9-0.5v-1.7l-0.9-0.5l-1.3,0.1l-1.5,1.9l-1.2,0.5l-1.6-0.1l-0.5-0.3l-0.1-1.3v-1.2v-0.9l0.4-0.5l0.5-0.8l0.6-0.5l0.4-0.4
		l-0.5-0.9l-0.4-0.6l-0.4-0.7h-2.1l-1.9,0.8l-0.6-0.2v-1l0.2-0.7l0.2-1.5l0.5-0.4l0.3-1.5l0.6-0.8l0.2-0.9l0.3-1.1v-1.5l-0.5-1
		l0.5-1.1l0.3-1.7l0.8-0.2L362.2,225.7z"/>
	<text id="XMLID_46_" transform="matrix(1 0 0 1 409.3607 270.712)" class="st2 st3">卡斯蒂利亚-拉曼恰</text>
</g>
<g id="laiying">
	<path id="XMLID_45_" class="st0" d="M291.7,111.6l0.9-1.8l0.5-0.6v-1.1v-1.2l-1.3-0.5h-1.4l-0.5-0.5l0.7-0.6h0.9v-1.2h1l-0.2-1.1
		l1.6-0.4V102v-1.7l1.6-0.8l1.1-0.5v-0.9l0.8-0.9h1.6v0.7l1.2,0.1v0.3h1v-2.2h0.7c0,0,2.8-3.6,1.7-6.8c0,0-0.5-1.9-4.3-2.8l0.9-0.9
		l0.1-1.9h0.5l0.1-1.6l-0.5-1.2h-1.2h-0.4l-0.6-0.4l-1.3-0.6l-0.9-0.8l-1.3-0.6h-1v1.6l-0.4,0.5l-0.2-0.6H292l-1.3-0.2l-0.8-0.5
		v-1.8v-0.7l0.8-0.7h0.7l0.7-0.7l-0.9-0.5v-2.3l1.6-0.5l-0.4-2.1l-0.5-0.6l0.2-1.2l0.5-0.6h1.6l0.9-0.6l0.1-0.8h1.6
		c0,0,4.3-4.1,4-5.4l-0.9-0.5l0.2-1.4h1h0.9l-0.3-1.7h-0.5l-0.1-1h1.6l1.2,0.8h0.8l0.5-0.7l0.7-0.6l1.4-0.6h1.1l1.4,0.1l1,0.4
		l2.3,0.4l0.5-0.6l0.9-0.2h1.1h0.5h0.8h0.6l0.1-1v-0.4l-1.8,0.1l0.3-2.6l1,0.2l0.5,0.4l1.3-0.8v-0.8l0.6-0.1l0.2-1.1l2.3-1.5
		l1.2,1.2l0.2,0.7l2.2,0.2l0.5,0.7l1.6-0.3V49h1.2h1.2l1,1.4h0.4h0.3l0.3-0.2l0.2-0.2l0.2-0.2l0.2-0.9l0.2-1.1h1.6h0.9l0.4,0.8
		l1.2-0.1l0.4-0.4l0.8-0.1l1.2,3.5l2.1,1.4l1.9,1.3L346,54h0.5l0.5-1.5l0.4-1l0.6-1l0.7-0.7l0.6-0.4l0.3-0.1h0.9h1l1.1,1l0.3,0.2
		l1.9-0.2l1.2,1.1l1,0.2l0.3-0.6h1.5l0.2-1.2l3.1-0.2h0.4h0.9v-1.1v-0.7v-0.4h0.9h1h0.5l-0.1,0.9l0.8-0.1l1.2-0.1l0.8-0.1l1.4,0.1
		l1.6,0.1l0.1-0.8l1.7,0.2l0.1-0.7h1.2L376,47c0,0-0.5-5.2,4-4.4l0.7,0.1c0,0-0.4-1.3,3.1-3.1l1.8-0.1l1.2,0.4l0.6,2.5l3.1,0.4
		l-0.5,0.9l-1.9,0.6l-0.7,1.4l0.4,1.6l3.4,2.4v1.1l0.7-0.1l0.6,1.2l-0.6,0.2v0.5l4.8-0.2l0.2-0.6l1.3,0.1v0.5l5.5-1.9l1.4,0.7
		l1.4,0.6l1.6,3.1l1.8,1.7l3.5,0.1l0.1,2.6l0.5,0.1v4.2h0.9l1.8-1.7l1.8,1.5l-1.4,1.7l-0.8,1.5h0.9h0.7l0.4-0.3l0.3,0.1l-0.1-1.5
		l1.7,0.1l0.2,1.3l-0.5,0.2l0.2,1.9l1,0.2v-1.3l1.2-1.3l0.6-1.8l1.2,0.7l0.4,3.9l0.8,0.1l1.1-0.7l1.2-2.1l1-0.1l0.5,1.2h1.2l1.5-0.6
		l-0.7-2.3l-0.4-1.8l-0.9-0.2l-0.6,1.3l-2-0.4l0.5-1.9l0.8-0.7l1.2-0.3l0.8-0.6l-0.2-1.4l-1.1-0.1l-1.7,1.8l-0.3,1.2l-1.3-1.2h-1.5
		l-0.1-2.2c0,0,0.4-4.8,5.5-6.4l0.3-0.3l0.1-2l2.2,0.2l1.3,0.7l0.4-1.5l1.8-0.4l0.9-2.1l1.1-1.2l0.5-1l0.4-0.4l1,0.1l1.1,0.4
		l-0.4,1.1l3.5,0.3l0.2,0.7l3.6,0.2l1.3,0.2l1.5-0.1l3.1-2.1l1.6-0.9l1.7-0.1l0.6,1l1.9-0.2l0.5-0.4l1.6,0.7l-1.8,3.4l1.7,0.4
		l0.5,1.2l-0.9,0.3l-0.2,0.6l0.5,0.2l-0.1,3l-0.5,0.1l0.1,0.5h1.8h1.7l1.2,0.3l0.3,0.2l0.1,1.3l0.9,0.4l1,0.8l0.5,1.5l-1.2,1.2
		l-4.3,0.2l-2-0.7l-2.5-1.2l-0.8,1.2l-0.8,1l-0.4,0.5l-0.6,0.7l0.8,0.9l1.7,1.1l0.6-0.5v-1.2l0.9,0.1l0.2,0.6l1.2-0.1l0.4-1.3
		l0.9,0.1l0.8,0.1l0.3,1.5l-0.8,1.1l-0.9,1.3l-0.6,0.4l0.5,0.5l0.8,0.8l0.1,0.9l0.8,0.1l0.9-0.1l1,0.1l1,0.2l-0.2,1.9l1.8,0.2
		l0.7,1.4l0.5,0.2l0.2-0.5h0.5l1.4,1.1l1.5,0.3v2.3l2.1,1.5l-1.5,0.9l-2,0.9l-0.4,1l-1.4-0.3V78c0,0,0.6-0.5,1.2-1.2h-6l0.9,1.5
		l-0.2,1.1l-0.8,0.5l-0.5,0.8l-1.2,0.5l-0.9,0.9l0.9,0.6l0.2-1h0.9l0.1,0.9h0.5V85h-0.6l0.4,0.6l0.8,0.5v1.2h0.6l-0.5,1.5l-4,13.4
		l1.3,2.7l0.5,1.6l2.5,2.1l-0.2,1.1l4.9,0.2l0.3,1.9l1.2,2.3h1.9c0,0,0.1-2.7,2.3-2.6l-0.1-2.1l0.8-1.6l0.5-0.9l2.4-0.1v1.9
		l-1.3,3.2l-0.5,1.4l0.6,1.2l2.5-0.4v0.7h5.5l2-3.5l0.6-0.5V108l0.6,0.2l1.5,0.3l1.6-1.8l2.5-0.2v-0.6h2.3v0.6l1.3,0.1v2.7l0.8,0.4
		h1.2v-0.5l1.9-0.7l3.3,0.1v1l-1.4,0.2l-0.7,1l0.2,0.6l1.9,2.2l0.4,1.1l0.4,0.3l0.4,0.3l0.9,0.6l0.8,0.5l0.2,0.2l1.5,0.1l1.5,1.2
		l0.7,0.6h1h0.8l0.7-0.5l0.5-0.4l1.3-0.4l0.5,2.9l1.1,0.6l0.4,1.9h0.3v2.1l-1.7,0.8l0.3,1.6l1.4,0.9l0.9,1.4v1.2h1.6v1.2h-1
		l-0.5,0.9l-0.1,1.1h-1.8l-3.1,3.8l-0.2,0.7h-0.8l-0.5-0.6l-1.5,0.2v2l0.5,0.6l0.5,0.5l0.3,0.3l0.1,1.3H513v2.5l0.7,0.5l0.6,0.8
		l-0.1,2.7l-2.7,1.2h-0.6v-2l-2.3-1.1l-1.4-0.1l-0.5,3.2l0.1,1.6l-1.7,0.9l-0.5,2.1l0.2,3.6l0.1,1.5h0.5l0.1,4l2.3,0.5h0.7l1.2,1.6
		v1.3v1.4l-0.8,0.2l-1.9-1.2l-0.9-0.1l-1.7,1.3h-1.2l-0.4-0.5h-1.2l-1.8,1.7h-1.2l-0.3,0.9h-0.8l-0.4-1.3l-1.8-0.2l-1.2,1.1
		l-1.2-0.5l-1.2-0.2l-0.2-2.2l-1.2-0.7l-0.6-1.2l-0.6-1.2h-1.2l-0.3,0.8l-0.5,0.6l-1.5-0.8l0.4-0.9l0.5-1l-0.3-0.7h-0.9V162l0.6-0.3
		l0.6-0.4l-0.2-0.9l-2.2-0.3l-0.3-0.5l-1.7,0.1l-1.2-1.1l-0.4-1.3l-2.8-0.2l-0.2,1.2l-2.3,0.1l-1.2-0.7l-0.2-3l-1-0.5h-1.7l-1.6,1.3
		l0.1,0.9l-3.6,0.3c0,0-0.5,1.2-2.9-0.2h-1.9l-0.2-0.7l-1.5,0.1l-0.2-0.8l-1.6-0.1l0.2,0.9l-1.9,1.3l-1.5,0.6l-0.5,0.4l-4.2,0.4
		l-0.5-1.1l-0.8,0.1v1l0.4,0.5l0.2,1.5l-1.5,0.2l-1.9,1.9l-1,1.2l-3.6,0.2l-3,3.6L435,170l-0.9,1.2l-1.4,2.4l-1.5,0.9l-1.9,0.5
		l-1.8,0.9l-2.3,2.9l-0.5,1.9l0.4,1.4h-0.5l-0.5,1.6l0.2,1.8h-0.7l-0.3,1.1h-1.2v0.8h-1.2l-0.3-0.7l-0.4-0.9l-0.8,0.1l-0.5,1.5
		l-1.4,1.2l-1,1.5l-0.9,0.9l0.2,1.1l-1.6,0.8l-0.7,2.1l-1.1,1.5l-2.2,0.5l-1,0.8l-0.2,1.9l-1.2,0.8l-0.3,1.8v4.5h-1.9l-0.5,0.9
		l-0.7,0.9l-1.5,0.5l-1.1,0.7l0.1,2.2l-0.5,1.4l-0.2,1.5h-2.4l0.1-1.4l-1-0.9l-1.3,0.3l0.6,1.6l0.5,2.1l-1.9,1.1v1.6l1,1.1l-0.7,0.7
		l-2,0.2H392l-0.8-0.5l-0.5-2.5l0.1-1.9l-1.9,0.1l-0.6,1.3l-1.2-0.1V217l-0.5-0.7l-1.2,0.2l-0.5,0.8l-0.1,2l-2.6,2.3l-0.5,0.9h-1.6
		v2.2l-1.3,0.4l-1.1,1.1h-1.1l0.2-1.6l-0.8-0.9l-2.1,0.2l-3.1,3.3l-3.3,0.5l0.2-1.5l-5.8-0.7l-0.7-8.1l0.7-0.2v-0.9l-1.9-0.1
		l-0.7,0.4h-1.1l-0.5,1h-0.6l-0.9,1.2l-0.5,0.3l-0.8,0.3H354h-1.1l-1.6-0.8l-1.1-0.3l-0.4-1.4l-0.4-0.2l-1.2-0.4l-0.1-0.6l-0.3-1.1
		l-0.5-0.2l-1-1h-1.4l-1.2,0.5l-0.2,0.3l-0.4-0.2l-0.7-0.1l-0.6-0.7l0.1-1.6l-0.1-0.9l-0.6-1.1l-2.2,1.3l-0.8-0.2l-0.8,0.9
		c0,0-0.5,1.4-0.5,1.6s-1.4,0.6-1.4,0.6l-0.3-0.5l-2.3-0.4l-0.6-0.9l-0.6-1.5l-0.5-0.4l-1.3-0.1l-0.7-0.6l-0.9-0.4l1-2.7l-1-0.5
		l-1.1,0.4v-1.3h-1.6l-0.1-1.1l-1.1-0.1l-0.3-1.3l-1.9-0.5l-1.7,0.5l-0.6,1.2l-2,0.2l-2.3,1.8l0.1,1.2h-2.6l-1.5,1.9l-1.6-0.1
		l-1.7,0.7l-1.2,0.9l-0.9,1.6l-0.1,1.8l-0.7,0.8l-3.9-0.1l-0.6,1l-1.1,0.2l0.2-1.1l-1.2-0.2l-0.7,0.9l-1,0.2l-2,0.2l-1.2-0.8
		l-0.5-0.7l-0.2-1.5l0.9-0.8l1-0.8h1.2l0.1-1.6l0.9-0.4l-0.5-1.2l-0.7-0.9l-1.2-0.9l-0.2-0.9l-0.3-1.6l0.2-0.9l1-1l0.6-1.1l0.4-0.4
		l0.5-1l-0.1-0.6V197c0,0-0.2-0.2-0.5-0.2s-0.9-0.1-0.9-0.1l-0.5-0.8l0.1-1.1l0.4-0.6l0.5-0.6l0.4-0.9l0.3-0.5l0.3-1v-0.9l-0.1-1.1
		l-0.1-0.7l-0.1-0.8v-0.5l-0.5-0.2l-0.2-0.6l-0.4-0.6l0.2-1l0.2-0.9l0.2-4h1.2l-0.1-2.2l-0.6-0.5l-1.2-0.2l0.2-3l-0.8-0.2l-0.1-1.1
		l-0.6-0.6l-0.5-1.3l-0.7-0.5l-0.9-0.8l-0.2-1.2l1.6-0.3v0.6h1.6h2.1l2.6-3.6l0.4-1.8l-0.9-0.4l0.3-0.6l0.9-0.2l1.4-1.4l0.9-0.7
		l0.5-1.6l1.9-1.6l2.4-0.6l0.6,0.7l1.3-0.5l0.5-1.2l2.2,0.1v-1.5l2.4-0.7l0.9-1.7l0.9-1l1-0.3l0.2-0.9l-1.1,0.1l-0.2-0.7h1.5
		l0.6,0.3l1.6-0.5l-0.2-1l-0.5-0.6l0.6-0.5l1-1.2l0.8-2.6l1.7-0.9l1.5-2.3l0.5-1.2l0.4-1l-0.5-1.3l-1.2-0.8l-0.5-1.3l-1-0.6
		l-0.8-0.9l-1-0.9l-0.8,0.1l-0.7-0.4l-2.6-0.4l-0.7-0.4h-1.4l-1,0.9l-1.1,0.2l-1.1-0.2l-1.3-1.3l0.2-1.2l-0.2-1.5v-1.6l0.7-0.6v-1.7
		l0.5-0.4l-0.1-1.7l0.5-0.2v-2l-0.5-0.9l-1.2-0.3l0.2-1.2l0.7-1.2l-0.3-1.6l-1-0.9l-0.9-0.5l-0.6,1l-0.9,0.4l-1.4,0.1H305l0.2,0.6
		L304,114l-1.7-0.5l-1-0.4l-0.2-1.6l-0.2-1l-2-0.1l0.1,1.8l-0.4,0.2l-0.3,0.6l-1,0.4l-0.5-0.4l-1,0.1l-0.1,0.5l-0.5-0.2l-0.9-0.5
		l-0.6-0.1L293,112l-0.2-1l-0.7,0.3L291.7,111.6z"/>
	<text id="XMLID_44_" transform="matrix(1 0 0 1 356.4744 136.2333)" class="st2 st3">卡斯蒂利亚-莱昂</text>
</g>
<g id="jiatailuoniya">
	<path id="XMLID_43_" class="st0" d="M739.1,88.7h-0.9l-0.9,1.2l-0.5,0.9l-0.5,0.5v2.5l0.7,0.9l0.2,1.6l1,1.1l1.4,0.4l0.9,0.9
		l0.8,1.2v1.2h-0.8v1.6h0.8v1.6v1.1l1.4,0.6v1.6v1.4l-0.5,0.6l-0.5,1.3l-0.9,0.9l-1.3,1.3v0.5h-1.6l-1.2,1.6l-0.5,1.6l-1.3,1.1
		l-1.4,1l-1.1,0.6l-0.7,0.8l-0.4,1.2l-0.7,1h-1l-1,0.8l-1.8,0.4l-1.2,1.1l-1.2,0.9l-0.9,0.9l-1.3,1l-2.3,1.1l-1.7,0.8l-1.5,0.9
		l-1.1,0.7l-1.2,0.5l-1.6,0.5l-1.2,1.6h-1l-1.6,1.7l-2.4,2.1l-1.3,0.8l-1.3,0.4l-1.3,0.6l-0.9,0.9l-1,1.4l-0.9,1.2l-0.8,1.4
		l-0.9,1.4l-0.9,1.6v1.7l-0.9,1.2l-0.6,0.5l-1.2,0.5h-1.2l-1.3,0.7l-1.6,0.5h-2.4l-0.8,0.9H686l-0.9,0.8l-2.6,0.4l-1.3,1.2h-1.4
		l-1,0.5l-1,0.4L677,157h-0.8l-2.3,0.5l-0.7,0.5l-1.6,0.8h-2.7l-0.8,0.5h-1.4l-2,1.9l-1.1,0.6l-1.1,0.6h-3.4l-1.7,1.2h-1.2l-1.3,1.7
		v1.2h-1.2l-0.9-0.9h-0.9L651,166l-0.9,0.5h-1.6l-1,0.9l-0.9,0.7l-2.2,2.1l-1.1,1.4l-1.2,1l-1,1.2l-0.5,0.4v1l-1.8,1.6l-0.9,1.4
		l-0.6,1.2l-1.4,0.9v0.9l-1.1,0.9l-1,0.6v0.9h0.8l0.5,0.9l0.6,0.7h1.1h0.8l-0.7-1.2H636l-0.5-0.6l0.6-0.5l1.4,0.1l0.8,1.2l0.4,0.9
		l1.1,0.8l0.7,1h0.9l0.6,1.3l-1.2,1.2l-1.5,1.2l-1.7,1.1l-1.4,0.8l-0.1,1.6l-0.9,1.5l-0.9,1.2l-1.4,0.7l-1.5,0.4h-0.9l-1.1-0.4v-0.9
		l0.5-0.7l1.6-0.1l1.6-0.5l1-0.2l0.8-1.1l0.5-0.5v-0.6l-1.2-0.1l-1.6,0.5l-1,0.2l-2.3,0.4l-0.7,1.2l-1,1.6l-1.1,1L626,200h-0.5
		l-0.8-0.6h-1.4l-0.5-0.7v-1.9l-0.4-0.7l-1,0.1l-1.2-1.1h-2.6l-1.2-0.5l-1.2-0.1l-0.5-1.2l-0.5-1.2l1.2-1l-0.2-0.5l-0.5-0.7
		l-0.5-0.5h-1.3l-0.7-1.1h-0.6l-1.6-0.2V187l1.4-0.5l1.7-2.2l1.3-0.9l0.6-1l-0.2-0.8l-1.3-1.6l-0.5-1.3l0.3-2.3l1.3-0.8l0.1-0.5
		l0.2-0.8l-0.2-1.3l-0.5-1.1l-0.2-1.3l-0.5-0.6l-0.8-0.9l-0.8-0.9l-0.2-1.7l-0.9-1.1l0.1-1.7h1.9l0.2-1l1.8-0.2l0.5-0.9v-1.8l1-1.4
		l1.6-0.5l0.2-0.7l0.3-2.3l-0.3-1.2l-0.4-1.2l-0.9-0.7l0.1-0.8l1.3-0.9l-0.2-0.9l-1.7-0.9l-0.7-0.9l0.6-0.8l0.5-0.5v-1.8l0.1-2
		l2-0.3l1.4-2.6v-3.6l-3.6-0.1l-0.6-2.1l-0.3-1.1l-0.5-1.6l0.2-0.9l1.2-1.2l0.4-1.2l1-0.5l0.7-0.7l2.3-0.4l0.5-0.5v-2.2l1.3-1.2h1.6
		l0.3-1.3l-0.1-1l2.2-0.9V118l-0.5-0.2v-2.1l-1.1-0.4l-0.3-1.1l1.9-1.3l0.2-1.1l1.4-0.2l0.8-1l-0.3-1.2l0.5-1.8l0.5-1.9l0.5-1.2
		l0.2-1.5l-0.4-1.7l0.2-1.6l0.2-2.6l1.6-4.8l0.4-0.3v-0.9l-1.4-0.1l0.2-0.6l0.7-0.9l-1-0.8l0.2-0.9l0.2-2.6l-1-0.4l-0.8-1.2l-0.2-1
		l-0.8-0.8l0.5-0.9l1.1-0.1l0.2-1.2l-1-0.5l0.5-0.8l0.8-0.3l0.2-0.9l0.6-0.9l-0.3-2l-1.3-0.5l-0.3-0.3l-0.9-0.9l-1.2-1.9l-1-1.2
		l1.5-0.5l-0.1-0.5l-0.3-0.7l-0.3-0.6l-0.3-0.6l-0.7-0.3l-0.3-0.7l0.2-0.3l0.5-0.5l-0.2-0.7v-0.8l0.6-0.7l-0.4-1.5l-0.1-0.8l0.9-0.9
		h1.4l1.7,0.4l0.8,0.3l0.3,0.7l0.6-0.3l0.7-0.5l0.8,0.4l0.1,0.4l1.1-0.2l0.7,0.7l1,0.5l1.4,0.9l0.7,0.7l0.4-0.3v-1h1.3l0.4,0.8
		l0.8,0.4v-0.8h1.1l0.6,0.7c0,0,0.9,0,1.1,0c0.2,0,1.2,0,1.2,0l1,0.8l0.5,0.9l0.3,0.9l0.8,0.9l0.4,0.8h0.9L650,67l0.7-0.6l1.5-0.1
		h1.8h2.2h0.7l0.2,1l1.2,0.5l0.6,0.9l0.4,0.7l0.8,0.7v1.3l0.7,0.7l0.6,1v0.7h-0.7v0.6l0.9,0.3l-0.5,0.7l-0.3,0.7l0.1,0.7l1.2-0.1
		v0.8h0.5l0.2,0.8l-0.6,0.3l-0.7,0.5l-0.7,0.1v0.7l0.4,0.4l0.7,0.8l0.2,0.6l-0.1,0.6l-0.1,0.7h4.5l0.2-0.7l0.9-0.8l1.3-0.7l1.1-0.5
		h1.2l0.2-1.7l2.2-0.1h1.9l2.2,0.3l0.7,0.1l1.4,0.8l0.8,0.7l0.7,0.3l1.6,0.4l0.9-0.3l0.9-0.5l0.2-1l0.5-0.7l0.5-0.5l0.9,0.1l0.3,0.6
		l0.2,0.7l0.2,0.5l0.1,0.7l-0.5,0.2l-0.7,0.3l-1,0.1l-0.4,0.2l-0.2,0.3l0.3,1l0.6,1.2v0.7l0.3,0.7l0.8,0.7l0.8,0.4h1.2l1.7-0.4
		l1-0.8l0.4-0.9l0.5-0.6l0.5-1.1l1.5-0.6l2.1-0.1l1-0.7l1.1-0.6l0.7-0.1l1.4,0.5l1.3,0.7l1.3,0.6l1.7,0.3l1.3,0.3l0.5,1.1l1.2,1.3
		l1,0.5l1.3-0.1l1,0.1l0.7-1.1h3.1l0.5,0.6h0.9l0.2-0.8v-0.3l-0.6-0.4l-0.4-0.9l0.6-0.7l0.5-0.1l0.5-0.5l0.8-0.6l0.9-0.4l1-0.5
		l1,0.6l0.2,0.4l0.7-0.5l0.6-0.2l0.4-0.8l0.1-0.4l0.8-0.4l0.5-0.7l0.9-0.3l2.1-0.3l0.3-0.3l0.3-0.7l0.6-0.1l1.2,0.6h0.9h1l0.3-0.4
		l0.8-0.1l0.4,1.2l0.9,0.7l0.5,0.7l0.9,0.2l0.6-0.7h1.3l1,0.1l0.4,0.9l-0.2,0.7l-0.7,0.2l0.2,1.4l-0.1,0.6l1.3,1.2l0.7,0.6l1-0.5
		l0.5-0.3l0.7,0.7l1.7,0.4h1l0.3,0.9l-0.6,0.4l-0.5,0.2V87l0.1,0.8l0.1,1l-0.3,0.4h-1.3l-0.6,0.3l-0.6,0.5l-0.7,0.5l-1-0.6l-0.2-0.7
		L739.1,88.7z"/>
	<text id="XMLID_42_" transform="matrix(1 0 0 1 638.9573 124.7727)" class="st2 st3">加泰罗尼亚</text>
</g>
<g id="aisiteleimadula">
	<polygon id="XMLID_41_" class="st0" points="293.5,215 292.9,214 289.3,215 288.5,215 288.5,215.6 287.9,215.9 286.9,216.1 
		286.1,216.1 286.1,217 285.3,217.2 285.1,218.5 285.1,221.9 285.8,222.5 286.7,222.7 287.7,223.2 288.4,223.9 288.9,224.4 
		289.4,225.5 289.7,226.4 290.4,226.7 290.9,227.2 291.4,228.4 291.4,229.2 291.8,229.9 291.5,230.6 291.3,231.6 290.6,232 
		290.6,233.6 290.6,234.5 289.9,234.9 289.6,236 289.7,237.7 289.7,238.7 289.2,239.1 288.5,239.1 288.2,240 287.6,240.7 
		286.8,240.9 286.2,240.9 285.9,242.5 285.7,244 285.8,245.1 285.1,245.7 285.4,247.1 285.4,247.7 284.6,248.4 284.6,249.7 
		283.8,250.1 282.8,250.2 282.4,251 280.9,250.7 280.1,250 278.8,250.1 278.5,250.7 276.9,251 276,250.2 274.6,250.2 273.7,249.7 
		271.7,250.1 270.9,250.5 270.1,251 268.5,251 267.9,250.2 267.1,250 267.1,251 265.6,251 265,250.2 264.1,249.6 262.9,249.6 
		261.8,249.2 260.4,249.1 260.4,250.2 260.7,251 261.2,252.6 261.9,253.5 262.6,254.5 263.6,255.2 263.8,256.4 264.6,257.2 
		266.3,257.2 266.4,258.2 266.4,259.1 266.9,259.7 267.6,260.2 269.4,260.7 270.2,261.9 270.5,263.6 270,264.7 269.3,266.1 
		269.1,266.5 269.7,267.5 269.5,269 269.5,269.7 270.4,270.5 271.4,271.4 272.7,272.7 272.8,274.2 272.2,275.6 272.1,277.2 
		273.1,277.7 274.9,278.7 276.6,279.4 277.1,279.4 277.2,281.5 276.6,282.7 276.6,283.7 278.2,284.2 279.5,283.7 280.2,283.1 
		281.3,283.1 282.5,283.6 283.3,284.2 284.2,284.7 284.9,286.4 284.8,287.7 284.4,289.7 283.8,291.4 282.3,293 281,294.9 
		280.5,295.7 280.9,298 279.8,298.7 278.8,299.5 278.4,300.9 276.6,301.2 275.7,302.1 274.7,302.9 273.3,304 272.7,304.9 
		271.6,305.4 270.6,306 269.8,307.5 269.6,309.7 270.2,312 270.5,312.9 269.5,314.2 268.7,315.9 268,317.2 267.4,318.6 267.1,319.7 
		267,320.4 267.6,321 267.6,321.5 267.1,322.5 266.4,323.1 266.3,323.7 267.7,324.1 268.6,325.9 269.5,327.5 271.4,329.7 
		272.2,331.5 273.5,333.2 274.1,334.5 274.7,336 275.3,337.7 276.6,339.2 277.8,339.6 279.5,339 280.5,338.4 281.5,338 283,337.7 
		283.8,337.9 284.6,338.2 285.5,338.5 286.4,339 287,339.6 287.9,339.6 289.6,339.6 290.2,340.5 290.4,341.5 289.5,342.2 
		289.5,343.2 289.5,343.9 291.1,343.9 291.8,344.7 292.7,345.2 298.3,345.2 300.1,347.5 300.1,349.2 302.4,349.2 303.8,349.2 
		303.8,350.5 305,351 305,349.5 306,348.4 306,347.7 307.5,347.4 308.3,348.1 309.3,348.5 310,348.4 310.5,349.2 311.3,350 
		312.2,350.5 313.5,351.6 314.8,352.6 315.6,353.2 315.7,354.1 318,353.9 318,354.9 319.2,355.1 321.6,352.5 322.3,352.5 
		323.1,352.5 324.5,352.5 325.1,352 326.6,352 328,351.9 329.4,352 330,351.4 330.5,350.7 330.7,349.2 331.5,348.5 331.5,347.5 
		331,347 330.5,346.1 331,345.6 331.5,345 331.8,344.6 332.9,344 333,342.7 334,342.2 334.4,341.9 335.2,341.9 336,342 336.5,341.5 
		337.5,341.2 338.4,340.9 339.3,340.9 340.5,340.7 341.1,340.7 341.6,341.1 342.3,342.2 341.6,343.2 340.6,344.2 340,344.6 
		339.7,345.5 339.8,346.6 339.8,347.1 340.7,347.6 341.3,347.7 341.9,347.6 342.6,347 343.1,345.7 344.3,344.7 346,344.6 347,344.2 
		347.7,343.7 348.9,342.7 348.9,342 349.4,341.1 349.9,340.2 349.9,336.7 349.3,335.7 348.9,335 348.6,334.5 348,333.7 347.5,333.2 
		347.5,332.7 348.3,330.9 347.4,329.4 347.4,328.7 347.5,328.2 347.8,327 348.6,326.2 349.7,325.5 351,325 351.8,324.7 352.3,324.5 
		353,323.5 354.9,322.1 355.8,321 356.5,319.7 356.5,318.7 357.1,318.1 358.4,317.9 359.2,317.9 359.2,318.5 360.4,318.4 
		360.7,317.6 361.1,316.9 362.3,316 364.9,314.1 366.5,313 366.6,312.4 366.3,311.2 366.6,310.4 368.5,310.4 369.6,310.4 
		370.1,310.4 370.1,311.2 370.9,311.2 371.2,310.4 372,309.7 373.9,309.9 375.9,308.7 376.3,308 376.3,305.7 377.2,305.5 
		377.2,303.1 377.7,302.1 379.1,300.6 381.2,300.1 382.2,300.4 382.9,299.2 382.9,297.1 380.6,296.7 379.9,296.4 379.1,295.7 
		378.4,295.1 378.2,293.9 377.8,293.7 377.7,291.6 377.2,291.4 377,290.6 377.1,289.7 378.7,289.7 379.4,290.6 380,291.1 
		380.8,291.5 382,291.2 382.9,290.7 383.4,290.2 383.4,289.5 382.3,289.4 381.4,288.4 381.4,286.7 382.2,286.4 382.2,285 
		382.6,283.7 383.4,283 384.1,282.2 387.9,282 390.2,283.4 391.3,283.7 391.3,282.7 389.1,281.1 388.7,279 387.6,278.5 387.6,277 
		387.1,276.2 387,274.2 387.2,273.7 389.3,273.6 389,272.7 390.5,269.7 391.3,268.2 390.2,267 386.8,268.7 385.4,269.9 383.2,270.2 
		382,271.1 380.7,271.4 377.9,269.7 376.6,268.6 375.5,267.2 374.6,266.1 374.3,264.9 373.4,264 372.2,264.2 367.1,258.2 
		367.1,256.6 368.3,255.5 368.4,254.1 368.8,253.2 368.8,251.6 369.7,251.1 370.1,250.4 369.5,249.4 368.5,249 368.2,248.1 
		368.8,247.4 368.9,245.9 367.6,245.2 366.2,246.2 365.1,247.5 363.7,247.7 362.6,247.7 362,246.7 362,244.9 362.3,243.5 363,242.7 
		363.8,241.7 363.2,240.9 362.4,239.6 360.3,239.6 359.2,239.9 358.5,240.4 357.9,240.2 357.9,239.2 358.3,238.5 358.3,237 
		359,236.7 359,235.1 359.6,234.2 360,232.7 360,230.7 359.5,229.7 360,228.6 360.3,226.9 361.2,226.7 361.2,226.7 361.8,225.7 
		361.1,217.5 361.8,217.2 361.8,216.4 359.9,216.2 359.3,216.7 358.2,216.7 357.7,217.7 357.1,217.7 356.7,218.2 356.1,219.2 
		354.9,219.6 354,219.6 352.8,219.7 352.2,219.2 351.2,218.9 350.1,218.6 349.7,217.2 349.4,217 348.1,216.6 347.7,214.9 
		347.2,214.7 346.2,213.7 344.7,213.7 344.1,214 343.4,214.6 343,214.4 342.2,214.2 341.7,213.5 341.7,211 341.1,210 338.8,211.2 
		338.5,211.1 338,211 336.7,213 336.2,213.9 335.8,214.1 335.3,214.2 335.2,214 334.3,213.6 333.5,213.4 332.7,213.2 332.4,212.7 
		332.1,212.1 331.6,210.9 331.6,210.9 330.6,210.5 329.7,210.4 329,209.7 328.2,209.1 328.5,208.6 328.5,208.2 328.2,209.1 
		329.1,206.7 328.1,206.1 327,206.5 327,205.2 325.3,205.2 325,204.1 324.2,204 323.9,202.7 321.9,202.2 320.2,202.7 319.6,203.9 
		317.6,204.1 316.9,204.6 315.2,205.9 315.3,207.1 313.6,207.1 312.6,207.4 311.3,209.1 309.7,209 307.9,209.7 306.7,210.5 
		305.9,212.1 305.8,213.9 304.8,214.7 304.3,214.6 301.2,214.6 300.6,215.7 299.5,215.7 299.7,214.7 298.5,214.5 297.8,215.4 
		296.8,215.6 297.4,215.5 296.5,215.6 295.5,215.7 294.5,215.6 	"/>
	<text id="XMLID_40_" transform="matrix(1 0 0 1 288.5623 277.7739)" class="st2 st3">埃斯特雷马杜拉</text>
</g>
<g id="jialixiya">
	<path id="XMLID_39_" class="st0" d="M252.4,4.9h-2.1l-1.2,1.6v1.4L248.5,9l-1.2,0.5l-1.2,0.8l-0.7,0.4h-1h-0.6v0.9l-0.8,0.9
		l-0.7,0.7l-1.1,0.6l-0.8,0.4h-0.7l-0.3,2.1h-0.9v0.4l-0.5,2l0.5,0.6h1.3l1.2-0.6l0.2-1l0.5-0.2l0.2,0.9h0.9l0.5-0.5l0.6-0.6l0.5-1
		h1.1l0.2,2l-0.7,1l-0.7,0.4l-0.9,0.5h-1.5l-1-0.5l-1.2,0.1l-0.4,0.8l0.9,0.7l1.5,0.4h1.9l1,0.5l-0.2,0.9l-1.6,0.5l-0.5,0.7l0.1,3.6
		h-0.9l-1.8-2.5l-1.1-0.6l-0.9-1l-0.6-0.3l-0.5,3.2l-1.6,0.5l-0.9-0.6l-0.6-1.2l-1.1-0.4l-1,0.1l-0.9,1.4l-1.2,1.1l-1,0.5l-1.3,0.4
		l-1.1-0.5l-2.1,0.5H223h-1l-0.7,0.9h-1.7l-0.9-0.7l-1.1-0.5l-1-0.8l-1.2-1.2l-0.5,0.5l-1.1,0.7l-1.5,0.2l-0.6,1l-0.9,0.9l-1.7-0.6
		v0.6l0.9,1.2h0.7l-0.1,1.7h-1.9l-0.9,0.8l-0.8-0.5l-1.2,1.7h-1.4V35l-1.5-0.6l-0.9-0.3l-1.2-0.2l-0.9,1.1H199v1.4l1.1,0.9v1.2
		l-0.4,0.9l-0.7,0.5h-0.8l-0.5-0.4h-0.5l-0.4,0.4h-0.2v1.2l-0.5,0.4h-0.6v2h0.5v2.8l-0.5,0.4l-0.6,0.9l-0.6,0.9v0.8h1.2l0.4-0.7
		l1.2-0.4l0.5,0.3l0.5-0.4v-0.9l0.9,0.1l0.2,1l0.7,0.9l1.2,0.7v1.2l-0.4,0.6l-0.1,1.5l0.5,0.5l0.6,0.8l-0.4,2l-1,0.4l0.5,1.1
		l0.2,1.2l1,0.5h0.9l0.5-1.3l0.5-1l0.9-0.5h1V58l0.4,0.6l1.3-0.2l1.1-0.6l1.4-0.9l0.5-1.2h0.7l0.7,1.1l-0.9,1.9l-0.3,1.1l-1.3-0.5
		l-1,1.8l-1.1,0.7l-2.8,3.2l-0.5,2.9l-0.8,0.9l-0.6,0.5l-0.3,0.7l1.5,0.9l0.2,1.9h0.9l0.6-2l0.6-0.1l0.9-0.5l0.9-0.9l0.3-1.8
		l0.5-0.8l0.8-0.6l1.2-0.2l0.8,0.3l0.4-1.1l0.5-1h0.8l0.2,1.1l0.7,0.2l0.1,1.1l1,0.1l0.5-0.9l1.4-1.3h0.8l0.6,0.9l-2.3,2.6l-0.2,2.6
		l-3,1l-0.2,2.3l0.9,2.3l-1,1.2l0.2,1.2h-1.2l-1.1,0.6l-0.1,1L211,82h1.9h2.3l1.1-1.8l1.1-1.1l1.5,0.3l1.2,0.6l-1.5,1.9l-1.6,1.5
		l-1.3,0.9l-1.2,1.6l-0.5,0.4h-0.9h-0.9v2.6h-1.5l-0.1-1.1l-0.6,1.1h-0.3l0.7,0.9h3.6l1.5-1.2l2.5-0.2l1.1-1.7l0.8-1.9h1.3l0.1,2.3
		l0.1,1.7l-1.1,1l-1.5-0.4l-0.9,0.9l-2.7,1.9l-1.5,1.1l-1.7,1.9l-0.5,1.2l-0.1,2l-0.7,0.4l-0.9-0.5h-1.2l-0.5,0.5l-0.5,2.3l0.5,0.5
		l0.1,4.2h-0.6l0.1,6.9h0.9l3.1-2.6l2.3-2.9l0.5-0.5l1.9-0.3l0.5-2.2l1.6-1.3l4.5-0.2l0.5-1.2l3.8-0.5l0.5,0.6l0.7,0.5l3.6-0.5
		l0.5-1.3l0.9-0.7l2-1h1.9l1-0.4l0.2,4.7l2.8-0.2l1,0.1l0.7,1.5l0.5,1.6l-0.9,1.7c0,0-4.4,0.4-5.7,4.7c0,0-0.5,2.3,2.1,2.7v3.3h4.5
		l0.1-0.6h1.3l1.6-2.5h2.6l0.6-2.9l1.6-0.3l0.2,4.2l1.4-0.9l2.3-0.2l1.3-1.2l3.4,0.2l1.2,1.1l3.3,0.7v1.2l-0.6,0.2l0.2,1.1l0.8,0.5
		l0.8-0.5l1.6-0.2v-1.3l1.6-0.3v0.8h2v1.6h0.9v1.2h0.9v-1.9h5c0,0,5-2,4.7-4.2v-2.9l1.6-0.8l1.6-0.2l1,0.9l0.8,1.4l2.8,0.2l0.7-0.7
		l1-1.2l0.9-1.6v-2.3l-1.3-0.5h-1.6l-0.3-0.5l0.7-0.6h0.9V104h1l-0.2-1l1.6-0.4v-0.9l0.3-1.6l1.3-0.6l1.1-1.5l0.4-0.5l4.3,0.6v-2.2
		l1.4-1.1l1.1-2.7l0.2-1.4l-0.2-1.6l-1-1.3l-1.6-0.9l-1.8-0.6l0.9-0.9l0.1-1.9l0.6-0.6v-1.2l-0.6-1.1h-1l-1.2-0.5l-0.9-0.4l-1.1-0.9
		l-2.3-0.6l-0.2,1.9l-1.7-0.4l-1-0.1l-0.4-0.1l-0.2-0.2l-0.3-0.4v-2.3l0.8-0.7l1.4-0.7l-0.9-0.5v-2.3l1.6-0.5l-0.2-0.8l-0.1-0.6
		l-0.3-0.8l-0.4-0.4l0.1-0.4l0.1-0.8l0.7-0.6h0.6h0.5h0.4l0.9-0.6l0.1-0.8h1.6l2.8-3l1.2-2.4l-0.5-0.3l-0.3-1.5h0.8l0.9-0.1
		l-0.2-1.6l-1-0.6l0.5,0.2l-0.3-0.8v-1.4l-0.4-1.4l-1-1.9l-1.6-0.3l-1.7-2.3l-0.4,1.7l-0.6-0.5l-0.5-0.4v-0.8l2.3-2.8l1,0.4
		c0,0,2.9-1.5,3.5-2.3l0.4-1.5c0,0,0-1.4-0.9-1.8l-0.7-1.1l-0.6,0.5l-0.7,1.6l-0.9-0.2l-0.9,0.4l-1,0.5l-0.9-0.7l0.6-0.4l0.3-1.3
		l0.1-2.3h-1.2l-1.1-0.9l-1.7-1.4l-0.2-3.7l-2.6-1.9v-3.4l-1.4-0.1l-0.3,0.6l-0.4-0.8l0.3-0.9l0.4-0.7h3.2l2.3-3.4l0.2-2.3l-0.2-1.6
		l-2.6-0.2l-3.3-0.1l-1.6-0.3l-1.6,0.1v-0.6v-1.6l-1.4-1.4l-1.1-1.7l-1.1-2l-1.7-1.1l-3.6-1.7V5.2h-2.5l-1.2,0.9l-1.2,2.2l-0.8-1.4
		V5.2l-0.9-1.6h-1.4l-1.1,1.1V2.5h-1L264.3,3l-1.1,0.9L262,4.4l-1.1,0.8l-1.2,1.2l-0.6,2.1h-1.6V7.1l0.8-0.8l0.8-1.9V2.2l-1.6-0.3
		L256.6,3l-1,0.5l-1.4,1.1L253,5.2"/>
	<text id="XMLID_38_" transform="matrix(1 0 0 1 233.2762 70.5043)" class="st2 st3">加利西亚</text>
</g>
<g id="laliaoha">
	<polygon id="XMLID_37_" class="st0" points="479,114.2 478.3,114 477.9,113.1 478.3,112.1 478.6,111.4 478.9,110.6 479.2,109.6 
		479.7,108.5 479.7,108 479.7,106.6 477.3,106.6 476,109.1 476,111.5 474.9,111.5 474.3,112.4 473.9,114.1 472,113.9 471.5,113.1 
		470.7,111.6 470.4,109.6 465.5,109.5 465.7,108.4 464.5,107.5 463.8,106.9 463.2,106.1 462.7,104.6 462.1,103.5 461.7,102.6 
		461.4,102.1 461.5,101.7 461.7,101.1 461.9,100.6 462.2,100 462.5,98.6 462.7,97.6 463,97 463.1,96.5 463.2,96.1 463.5,95.2 
		464,93.6 464.2,92.9 464.6,91.6 465.5,88.6 465.9,87.6 466,87.1 465.4,87.1 465.4,85.9 464.6,85.5 464.2,84.7 464.8,84.7 
		464.8,82.4 464.3,82.4 464.2,81.5 463.4,81.5 463.1,82.5 462.2,81.9 463.1,81 464.2,80.6 464.7,79.7 465.5,79.2 465.6,78.1 
		465.2,77.5 464.7,76.6 466.6,76.6 467.5,76.6 470.7,76.6 470,77.4 469.4,77.9 469.4,78.9 469.8,79.1 470.8,79.1 471.2,78.1 
		472.6,77.5 473.2,77.1 473.7,76.6 474.7,76.2 475,77.4 474.4,78 474.9,79 474.2,79.2 474.3,80.2 474.8,80.6 474.9,81.2 476,80.6 
		478,79.1 477.4,77.4 477.8,76.7 479.1,76.9 481.1,78.6 481.6,78.9 481.5,81.5 481.2,82.1 481.2,82.9 482.2,83.1 482.8,84.1 
		483.1,84.6 483.9,84.6 484.1,84.1 484.9,84.1 485.4,84.6 486.3,84.6 487.3,84.6 488,83.6 488.1,83.4 489.2,83.1 489.6,84.6 
		490.2,84.6 491.2,84.6 492.8,84.9 494.2,85.5 495.2,85.9 495.7,86.1 496.7,86.1 497.5,86.1 498,86.1 498.8,86.1 499.1,86.1 
		499.9,87.1 501.2,87.4 501.6,88.2 503,88.6 503.9,88.9 504.3,88.9 505,88.4 505.3,88.5 505.5,88.5 506.6,88.7 506.9,88.9 
		507.6,90.6 508.1,91.6 508.2,93.4 509.4,93.4 509.8,93.2 510.2,92.4 511.4,92.7 512.2,93.4 512.5,94.6 514.7,95.4 515,96.5 
		516.2,97 516.5,97.1 516.4,98.2 516.7,98.6 517.2,99.1 517.9,99.6 518.7,99.6 519.2,100.7 520.6,100.7 520.9,100.7 521.6,101.6 
		523.9,101.5 524.4,101.9 525,102.5 525.1,103 525.2,103.6 525.2,104.4 524.9,105.2 524.4,105.2 523.8,105.2 522.1,105 521.4,105.1 
		520.8,105.4 520.2,104.7 518.9,104.9 518.4,106 517.5,107.5 516.1,109.1 516.1,110.1 515.8,111.6 517.4,112.5 519.2,114.1 
		518.1,115.1 517.1,117 515.8,117.4 514.7,118.2 512.9,118.2 511.6,117.1 510.6,116.5 509.1,116.4 506.4,114.6 506,113.6 
		503.9,110.7 504.6,109.7 506,109.5 506,108.5 502.7,108.4 500.8,109.1 500.8,109.6 499.7,109.6 498.9,109.1 498.9,106.5 
		497.6,106.4 497.6,105.7 495.3,105.7 495.3,106.4 492.8,106.6 491.2,108.4 489.1,107.7 489.1,110.6 488.5,111.1 487.8,112.4 
		486.5,114.6 485.6,114.6 482.6,114.6 481,114.6 481,113.9 480.4,114 	"/>
	<text id="XMLID_36_" transform="matrix(1 0 0 1 464.7505 101.0552)" class="st2 st3">拉里奥哈</text>
</g>
<g id="madeli">
	<polygon id="XMLID_35_" class="st0" points="415.3,192.4 415.9,192.1 415.6,191 416.6,190.1 417.6,188.7 419,187.5 419.5,186 
		420.2,185.9 420.9,187.5 422.2,187.5 422.2,186.7 423.3,186.7 423.6,185.6 424.3,185.6 424.1,184.1 424.6,182.2 425.3,182.2 
		424.9,180.7 425.3,179 427.7,176.1 429.8,175.1 431.3,174.6 432.8,173.7 433.2,173 433.5,172.5 434,171.6 434.7,170.7 435.6,169.7 
		436.5,169.1 437.2,168.6 438.2,167.9 439.3,166.9 440.7,165.1 441.3,164.4 444.2,164.2 443.7,165.2 444.3,166 445.2,166.6 446,168 
		446.8,169 447.7,169.2 448.3,169.6 448.3,171.1 448.6,171.9 449.1,172.7 449.5,173.1 449.9,174 449.2,175.7 448.8,176.1 
		448.7,177.5 448,178.2 447.8,180.2 447.9,181.7 446.8,182.4 446.3,184.1 446,184.9 445.8,186.5 446.5,186.9 447.4,187.7 
		447.9,188.7 448.3,190.4 448.4,190.7 447.2,192.2 447.2,193.1 448,193.6 450.2,193.6 452.5,196.4 452.5,197.9 452.5,199.2 
		453.7,199.6 454.8,200.5 454.8,201.7 454.8,202.2 455.5,202.2 456.3,202.2 457.7,202.7 458.2,203.2 459.2,204.2 459.6,205.2 
		460.3,206.9 460.8,208.1 460.8,209.5 460.8,211.1 460.8,213.2 460.2,214.2 460.2,215 459.5,216.1 459,217.9 458.7,219.2 
		459.4,220.2 460.1,219.4 461.7,218.6 462.4,217.5 463.1,217.2 463.7,218.4 463.7,219.6 463.7,220.2 463.7,220.7 463.7,222 
		463.7,222.7 463.7,223.2 463.7,223.7 463.7,224.7 464.7,224.7 464.7,225.9 463.4,225.9 463.6,226.7 464.7,227.4 464.7,228.2 
		464.7,229.2 463.4,230.2 462.3,230.9 461.2,230.9 460.2,230.4 459.7,229 458.9,229.2 458.7,230.5 457.9,231.2 455.8,231.2 
		454.5,231.2 453.7,231 452.8,229.7 450.6,229.9 450.2,230.5 450.2,231.2 449.8,232.2 449,232 449,231.2 448.1,231.2 448.1,232 
		444.5,231.4 444,232.7 443.7,233.4 441.4,233.6 440.8,234.1 439.3,234.6 438.5,236.5 437.2,236.6 436.1,237.2 434.5,237.5 
		433.7,238 431.9,240.2 431.4,240.5 430.5,241 429.8,240.7 429.2,240.6 427.8,240 427.4,238.6 428.2,237.9 429.6,237.9 430.1,237.4 
		430.4,237.2 432,237.2 432.9,236.2 434.8,235 435,233.7 436.3,233 436.9,232.6 437.6,232.1 438.5,231.7 439.5,229.7 439.9,228.7 
		439.9,227.9 439.5,227.2 438.9,227.2 437.1,226 436.5,226.2 436.1,226.5 435.3,225.7 434.8,225.2 434,225.9 433.7,226.7 
		433.1,226.1 432.4,225.4 431.2,223.5 430.7,223.9 430.1,224.4 429.7,224.7 429.2,224.4 428.8,223.5 428.2,223 424.4,221.9 
		422.9,221.7 421.8,220.9 421.2,220.1 419.9,219.2 419.9,218.5 418.8,218.5 418.1,219.2 417.7,220 417,219.9 417,219.2 415.5,219.2 
		415.5,218 414.4,217.5 414.1,216.9 413.7,216.1 412.9,216.7 412.9,217.9 411.2,218 410,220.2 408.7,221 406.4,219.9 406.4,216.2 
		406,215.2 404.8,215.2 404.8,216.5 403.7,217.7 402.9,219 402,219.7 400.7,220 399.7,220.2 399,221.4 397.5,221.6 396.2,221.7 
		396.3,221 397,220.2 396,219.2 396,217.6 397.9,216.5 397.6,215.4 397.4,214.4 396.8,212.9 398.1,212.6 399.1,213.4 399,214.7 
		401.4,214.9 401.7,213.2 401.9,212.7 402.1,212.2 402.1,211.1 402.1,209.7 403.7,208.9 404.6,208.5 405.3,207.6 405.8,206.7 
		407.7,206.7 407.5,205.4 407.6,203.9 407.7,202.2 408.1,200.6 409.2,199.6 409.4,197.7 410.4,197 412.5,196.4 413.6,194.9 
		413.9,194 414.3,192.9 	"/>
	<text id="XMLID_34_" transform="matrix(1 0 0 1 412.8162 207.131)" class="st2 st3">马德里</text>
</g>
<g id="muerxiya">
	<polygon id="XMLID_33_" class="st0" points="531.8,391.4 531.1,390.4 529.6,389.2 528.5,388.6 527.5,387.5 526.3,387.6 
		525.6,387.6 525.1,387.6 524.7,387 524.2,386.9 523.7,387.6 523,387.7 521.8,386.2 521.1,385.2 519.9,383.9 519,382.2 518.1,380.7 
		517.6,380 516.7,378.7 516.1,377.5 515.3,376 514.2,374.2 514.3,370.7 515.1,370.5 515.1,369.7 514.2,369.7 514.3,366.4 514.4,365 
		514.4,364.2 514.9,363.4 515.5,362.5 515.5,361.2 514,361.1 513.8,362 512.1,362 512.1,361.4 511.1,361.2 510.1,362 509.6,361.4 
		509,359.9 508.1,359.9 508.1,360.9 506.4,360.9 504.1,358.7 502.2,357.7 501.6,356.7 501.2,356 500.7,355.2 500.4,354.5 
		499.6,353.7 499.2,353 498.5,352.6 498.7,351.5 498.9,350.2 499.1,349.7 500.4,349.2 501.2,348 502.2,347 504.6,343.1 505.1,341.9 
		506.3,341 507.9,340.4 508.8,340.4 509.4,339.4 510.5,338.6 511.2,337.6 511.3,336.7 511.5,336.2 512.6,336.2 512.6,336.9 
		514,337.2 515.4,337.4 517.1,336.7 518.2,336.2 519.1,336.2 520,335.5 520.8,334.7 521.6,333.9 522.6,333.9 523.4,332.6 524,332.2 
		524.6,331.4 525.8,331.2 526.7,331.5 527.5,331.5 528,331.5 528.5,331.5 529.2,332 529.2,332.6 528.6,332.9 528.4,333.7 
		529.2,334.4 529.5,334.7 529.8,335 530.1,335.2 532,335.2 534.4,334.5 535.5,333.6 536.2,333 537.1,332.2 537.7,331.7 538.3,331.1 
		538.5,330.7 538.5,325.7 538.5,324.2 537.8,323.7 537.9,322.4 537.1,322.4 537.3,321 537.7,320 538.2,319.1 538.8,318.4 
		539.2,317.6 539.3,316.2 539.8,313.9 542.2,311.2 543.5,310.9 544,311.2 544.2,312.7 544.9,312.9 545.6,312 546.1,311.2 546.9,311 
		547.5,310.2 548.1,309.9 548.4,309 549.5,308.5 550.7,308.5 553.8,308.2 554.3,308.7 555.8,310.9 556.4,311.7 557.4,312.7 
		558.4,313.9 559.5,314.1 559.5,316.2 560.1,317.4 560.4,317.9 560.5,319.6 560.2,320.2 559.9,321.1 559.6,321.9 559.6,322.4 
		559.6,322.6 559.7,322.7 560,323.5 559.2,324.5 558.3,325.2 557.3,326.2 557.2,326.4 557.1,332.2 556.9,333 559.8,333 561.1,334.2 
		561.6,334.7 562.4,336.2 562.6,337.7 562,340.2 561.9,341.1 561.4,341.9 560.5,343.2 559.9,344.4 559.6,344.9 559.1,345.9 560,349 
		560.8,349.9 561.6,351.7 562.2,352.7 563.4,354.1 564.2,355.1 565.6,357.5 566.6,358.9 567.7,359.6 569.5,361.1 570.8,361.6 
		571.9,362.5 572.2,362.7 572.5,363.9 573,363.7 573.4,365.2 573.6,365.7 573.9,366.5 574.3,367.4 574.3,368.1 574,368.7 
		573.3,368.4 573,367 572.6,365.9 572.2,364.7 571.5,364.2 570.8,365.7 570.6,366.5 570,367.6 569.2,368.2 568.8,369.4 568.7,370.5 
		569.1,371.7 569.6,372.7 571,373.7 572.5,374.5 573.6,374.5 574.9,374.9 575.3,374.1 573.6,373 573.7,371.7 573.9,371.2 
		574.5,371.2 575.3,372.7 575.7,373.7 576,374.2 576.6,374.9 575.5,376.4 574.3,377.2 572.7,377.2 571.8,377.6 571,378.2 
		570.1,378.7 569.2,378.2 568.6,378 567.8,378.4 566.5,379.2 565.8,379.9 564.5,379.9 563.3,378.7 562.7,377.7 561.4,377.7 
		561.2,378.6 560.4,379 558.7,378.6 558.3,378 557.6,378.7 556.6,379.4 555.8,379.5 555.8,380.2 556.3,380.7 557.2,381 556.7,381.6 
		556,381.6 555.3,381.1 554,381.1 553.9,380.2 554,379.7 553.7,379.4 553.1,379.1 552.6,378.7 551.4,378.7 550,378.7 549.6,379.7 
		549,380 546.5,379.7 543.6,382.2 542.2,383.6 540.8,383.7 539.8,385.1 539.6,386.1 539.1,386.7 539.2,388.1 537.1,388 536.8,388.6 
		536,389 535.1,389.5 534.2,389.6 533.6,390.2 533.2,390.7 533.1,391.2 	"/>
	<text id="XMLID_32_" transform="matrix(1 0 0 1 509.373 355.3585)" class="st2 st3">穆尔西亚</text>
</g>
<g id="nawala">
	<path id="XMLID_31_" class="st0" d="M492.2,80.1h-0.9l-1-0.6l-0.9-0.8l-0.4-1.2l2.6-2.6l0.9-0.8l2-0.1l1.1,1.5l0.6,0.2l-0.2-1h1.9
		h0.3l-0.2-0.8h-1.2l0.3-2l-0.7-0.7l-0.2-1.2l1.7-0.1l0.4-0.4l0.6-0.6l-0.2-0.9h-0.6l0.2-1.2c0,0,1.7-5.7,3-7.9c0,0,0.6-0.7,1.7-1.9
		l0.3,0.4h2.1v-0.5h0.6v-1.6h2.2l1.3-0.5l-0.6-0.5V52l0.4-0.6l0.1-1.2l5.7-3.5v-1.2l-0.4-1.2l-0.5-0.9l0.2-1l0.6-0.8h1.9l1.3-0.9
		l1.5-0.7v-2.2l2.2-0.7l1.6-1.1h3.3v0.9v0.9l-0.6-0.1l0.2,0.9l0.8,0.5l0.6,0.5l1.3-0.2l0.6-0.6v-1.4l0.7-0.3l0.7-0.6l1,0.2l0.9,1
		l0.5,0.6l3,0.1v1.2l0.8,0.3v2.4l-1.1,1.4l-0.6,1.6l-1.1,1.3l-1,1l-0.4,0.9l1.7,3l1.2,0.2l1.3,0.4l1.8,0.2l0.5-1v-3v-1.2l0.9-0.3
		l1.1,0.2l-0.6,1.2l-0.6,0.3l-0.2,1.2l0.5,0.9l1.4,0.5l0.8,0.7l0.8-0.3l0.5-0.9l0.6,0.9L546,52l0.9-0.2l0.7,1.1v0.5l1.2-0.3v-0.6
		l1,0.2v0.7l2.4,0.7l1.6,0.6l1.6,1.2l7.8,0.3l0.4-0.8l1-0.2l0.9,0.6v0.8l-0.8,0.6l-1.2,0.5l-1.3,1.2l-0.9,0.7l0.2,1.2l-1.2,0.9
		l-0.4,1.3l0.2,2.3l0.6,0.7l-0.5,0.8l-1,0.5l-1.6,1.3l-0.9,0.5l0.1,0.9l-0.9,0.4l-0.7,0.5c0,0-1.6-0.1-1.8-0.1s-1,0.2-1,0.2l0.3,2.1
		l-0.5,0.9l-0.6,0.5L551,74h-0.8l-0.9,0.1l-0.3,0.1l-0.7,0.2l-0.9,0.3v0.7v1.7L547,78l-1.5,0.9v1.3l-2,0.4l-0.7,0.4l-0.7,1.1v1.6
		l0.8,0.2l-0.1,1.1l-2.9,2.8v2.9h0.6l-0.1,2l-1.4,1v0.7l-0.9,1.2v1.9h-0.6l-0.3,2.5l-0.6,0.3v1.2l1.1,0.4v3.3v1.2l0.8,0.5l1.1,2
		l2.1,0.3l0.4,0.6l-0.7,1.1l-1.3,2l-1.1,2.2l-1.1,2.5l-1,1.2l-0.8,0.3l-1-0.6l-2.4,0.3v0.3h-2.4l-2.2-1.4l-1-1.3l-1.9-0.3v0.7
		l-1.6,0.1l-2.5-2.7l-1.3,0.2l-1.3-0.1l-1.8-1.7l-1.6-0.9l0.2-0.5l0.1-2l1.3-1.6l0.8-1.2l0.7-1.4l1.2-0.1l0.6,0.6l1.3-0.4l1.6,0.3
		l1.2-0.1l0.3-1.6l-0.2-1.2l-0.6-0.5l-0.7-0.4l-1.2,0.1l-0.9,0.1l-0.7-0.9h-1.7l-0.5-1.1l-0.9-0.1l-1.4-1.2l0.2-1.2l-1.5-0.7
		l-0.3-1.1l-1.2-0.5l-1.1-0.3l-0.3-1.2l-0.8-0.5l-1.2-0.4l-0.5,0.9h-1.6l-0.2-1.8l-0.6-1.6l-0.5-1.2l-1.9-0.5l-0.8,0.5l-1.2-0.1
		l-1.5-0.5l-0.4-0.9l-1.3-0.2l-0.9-0.9l-2.1-0.2h-1.2l-1.3-0.5l-1.6-0.7l-1.6-0.2l1.3-0.5l0.2-0.7l0.7-1.3l0.5-1.1l0.2-0.5h0.5
		l-0.2-2h-0.6l-0.1,0.9L492.2,80.1z"/>
	<text id="XMLID_30_" transform="matrix(1 0 0 1 505.9703 75.0415)" class="st2 st3">纳瓦拉</text>
</g>
<g id="walunxiya">
	<polygon id="XMLID_29_" class="st0" points="539.5,227.2 539.8,228 539.7,229 540.2,229.2 540.5,230.1 540.6,230.7 541.1,231.5 
		541.5,232.1 541.6,233 543.7,232.7 544.5,233.4 546.6,233.4 546.6,234.2 548.2,234.2 548.8,233.5 550.5,233.4 551.9,232.7 
		553,232.2 553.8,231.9 554.6,231.5 555.2,230.5 554.9,229.4 553.3,228 552.2,227 551.7,226.6 549.4,226.6 549.2,226.6 549.1,226.6 
		548.8,226.6 547.2,226.6 547.2,225 546.6,224.4 546.3,224.1 545.7,223.5 545.5,222.2 545.5,220.7 545,220.7 544.4,220.7 
		544.2,221.7 543.3,222.1 543.6,223.2 544,223.7 544,224.9 543.6,225.2 542.7,225.2 542.2,225.4 541.7,225.5 540.1,225.5 
		538.6,225.4 537.9,225.5 537.9,226.2 537.9,226.7 539.3,226.6 	"/>
	<path id="XMLID_28_" class="st0" d="M626.8,200.2l-0.4-0.2h-0.5l-0.8-0.6h-1.4l-0.5-0.7v-1.9l-0.4-0.7l-0.9,0.1l-0.9-0.7l-0.4-0.4
		H618l-1.2-0.5h-0.6h-0.6l-0.3-0.8l-0.1-0.3l-0.1-0.2l-0.1-0.2l-0.1-0.3l-0.2-0.5l1.2-1l-0.2-0.4l-0.1-0.3l-0.1-0.2l-0.2-0.3
		l-0.4-0.4l-0.3-0.3h-1.3l-0.7-1.1l-2.7-0.1l-0.3,0.5l-1.3,0.2l-0.2-0.9h-0.7l-0.5,0.7l-1.4,0.6l-0.3,0.2l-0.7,0.5l-0.8,0.2
		l-0.1-0.8l-0.1-0.7l-0.1-0.7l-1.4-0.2l-0.8,0.9l-0.8-0.1l-1.2-0.2l-0.6-0.8l-0.2-0.3h-1l-0.3-0.6l-0.3-0.5l-0.8-1.3l-1.6-0.1
		l-0.7,0.4l-0.3,0.7l-0.5,1.3l-0.3,0.8l-0.4,0.8v2.3l-1.1,0.2l-0.2,0.1l-0.7,0.3l-0.5,0.8l-0.9,0.2l-0.1-0.6l-0.1-0.5l-2-0.1
		l-0.7,0.4l-0.3,0.9l0.7,0.3l0.3,0.5l-0.8,0.5v0.8l0.5,0.5l1.1,0.5h0.4h0.4l0.8-0.1l0.7-0.2l0.6-0.1l-0.1,1.4l-0.2,0.7l-0.5,0.2v1.4
		l0.6-0.3l0.1,1.1l-0.7,0.5l1.2,2.9l-0.6,1.3l-1.5-0.1l-0.3,0.6l-0.9,0.1v0.9l0.6,0.2l0.6,0.8l2.2,2.2v1.2l-0.6-0.3l-1.6,1.5l-1,1.2
		l-0.9,0.9l-1,0.2v1.1l0.8,0.4l-0.1,0.9l-5,1.8v0.5l-1,0.2v-0.8l-1.6-0.1v1.4l-0.6,2.3l-0.6,0.6l0.1,1.8l-2.3,4.3l-1.9,1.9h-3.9v1.9
		l-0.7,0.9l-2.3,0.9l-1,1l0.6,3.8l1.1,0.1l0.6,1l-0.8,0.6l-1.6,0.7v0.7h-1.8l-0.3-0.7h-0.8l-0.1-0.5l0.9-0.3v-1.8l-0.8-0.2v-0.4h0.8
		v-1.2l-0.6-0.3v-0.8h-1l-1.1-0.8l-0.6-0.4l-5.1,0.2l-0.2,0.8l-2.3-0.2l-1.1-0.9l-0.5,1.3h-0.8h-0.6l-0.9,0.6l-0.3,1l0.3,0.8
		l0.4,0.3l0.1,3.1v0.7h-0.5v1.4v1l-0.7,0.5l-0.1,1.2l-1.6,1.6l0.2,3l0.3,0.6l-0.5,0.7l-0.7,0.6h-1.1l-1.1-0.5l-0.5-0.7l-0.8-0.1
		l-2.4,2.4l-0.5,0.9l-1,1.8l-0.2,1.6L537,259h-1.2l-0.2,1H535v1.2h0.7l-0.1,4.4h-0.7l-0.1,1.8l0.3,0.4l1.4,1.8l0.8,1l0.7,0.9
		l3.6,0.5l2.4,1.7h0.7h0.8h2.3l0.6,0.3l0.9,0.4h1l0.7,0.4v0.9v4.9l-2.1,4.1l-1.4,2.8l-0.4,1.3v1.6l1.3,1.4l4.3,5.1l0.7,0.6h2.8
		l0.6-0.5l2.8,0.1l-0.1-0.9l2.5,0.2l-0.1,1.9l1.2,1.2v3l0.1,3.5l-0.2,0.3h-1.6l0.2,1.2l1,0.4l0.4,1.6l0.8,1.1v0.8l-2.4,2.4h-2.1v2.1
		l0.9,1.6l0.2,1.8l-0.4,0.5l-0.2,1l-0.4,0.8l0.1,0.8l0.3,0.8l-0.8,1l-1.3,1.2L557,326l0.1,1.2l-0.1,4.6l-0.3,0.8h3l1.7,1.7l0.8,1.5
		l0.2,1.6L562,339l-0.3,1.7l-1.6,2.8l-0.7,1l-0.4,1l0.8,3.1l0.8,1l0.6,1.4l0.7,1.4l1.3,1.4l0.8,1l1.2,2.1l1.2,1.6l1.3,0.9l1.6,1.3
		l1.3,0.4l1.5,1.1l0.4-0.6l0.5-1.1l0.2-1.8l0.4-0.7l0.8-0.4v-1l1-1l0.7-1l0.7-0.4l0.8-0.5v-1.1l-0.2-4.6l0.8-3.8l1.7-3.3l3.5-0.1
		l0.4-2.9l-0.6-2.8l0.1-1.7l1.6-1.4l0.4-0.8l0.9-0.4h1l-0.2,0.4l1.5,0.1l-0.2-3l0.9-2c0,0,4.3-4.7,10.9-6.4h1.3l0.4,0.4l0.1,0.4
		l1.3,0.2l-0.1-1l0.3-0.7l0.7-0.9l0.1-0.8l-0.8-0.1l-0.1-0.9l0.9-0.4l0.7-0.9l0.5-0.8l0.6-0.6l2.3,0.1l0.2-0.7l0.9-0.2l0.6,0.2
		l0.1,0.7h0.7l-0.1-1.7l0.6-1.2l1.4-0.8l0.7-0.1l-0.3,0.8l0.8-0.1l0.5-0.5l-0.3-1.1l0.4-0.5l1.1-0.6l1.2-0.9l0.1-0.9l-0.4-0.7
		l-0.8-0.6l-0.9-0.8l0.5-0.8l-0.8-0.6l-0.9-0.5l-0.7-0.7l-1-0.2l-0.7-1l-2.1-0.1h-1.6l-1.2-0.4l-1.6-1l-1.3-1.2l-1.1-1.2l-1.4-1.5
		l-1.3-1.3l-0.4-1.2l-0.5-0.8l-1.2-2.1l-0.7-1.4l-0.7-1.4l-0.6-1.5L595,284l-0.4-1.1l0.3-0.8l1-0.8L595,280l-0.6-1.2l-0.6-1.3
		l-0.7-1.2l-0.4-1.3l-1.2-1.9l-0.5-1.6l-0.4-1.9l-0.7-1.1l0.1-1.3l0.5-1l0.3-0.8l-0.3-1.4l0.2-1.3l0.2-1.1l0.5-1.1l0.2-1.6l0.8-0.8
		l0.5-2.3l1.5-1.2l0.7-0.8l0.7-0.8l-0.1-2.1l0.5-0.8l0.5-1.2l0.4-1.1l0.8-1.3l0.8-1.1l0.7-1.2l0.7-1.3l0.5-1l0.8-0.7l0.8-1.2l1-1.2
		l0.9-0.7l0.5-0.5l0.7-2.8l0.5-1l0.2-0.9l0.3-1l0.8-1.6l1.3-0.9l1.5-0.9l0.8-0.5l0.4-1.2l0.1-0.8l0.6-0.8l1-1.9l0.3-1l0.9-1.1
		l0.8-0.8l1-0.3l0.6-0.8v-1.8l1.5-1.1l0.9-1.2l1-1.3l0.8-1.1l0.6-1.6l0.6-0.9l0.4-0.9l-0.1-0.7l1.1-1l0.8-1.3l0.3-1l0.6-0.7l0.7-0.8
		l0.4-0.9l-0.1-0.7l0.8-0.7L626.8,200.2z"/>
	<text id="XMLID_27_" transform="matrix(1 0 0 1 541.9146 267.2586)" class="st2 st3">瓦伦西亚</text>
</g>
<g id="andaluxiya">
	<polygon id="XMLID_26_" class="st0" points="283.7,338.2 285.8,338.5 287,339.6 289.6,339.6 289.9,340 290.7,340.9 290.2,341.7 
		289.8,342.5 289.5,343.6 289.8,343.9 291.1,343.9 291.5,344.5 292,344.9 292.7,345.2 297.5,345.2 298.3,345.1 300.1,347.5 
		300.1,349.2 303.8,349.2 303.8,350.5 305,350.7 305,349.5 306,348.4 306,347.7 307.5,347.4 308.3,348.1 309.3,348.5 310,348.4 
		310.5,349.2 315.6,353.2 315.6,354.1 318,353.9 318,354.9 319.2,355.1 321.6,352.5 324.5,352.5 325.1,352 327,351.9 329.5,352 
		330.5,350.7 330.7,349.2 331.5,348.5 331.5,347.5 330.9,346.9 330.5,346.1 331.8,344.6 332.9,344 333,342.7 334.4,341.9 336,342 
		336.4,341.4 337.5,341.2 337.9,340.9 338.4,340.9 338.8,340.9 339.3,340.9 341.1,340.7 341.6,341.1 342,341.6 342.3,342.2 
		342.1,342.7 341.9,343 341.6,343.2 341.1,344 340.4,344.4 339.6,344.7 339.8,347.1 340.7,347.6 341.9,347.6 342.6,347 343.1,345.7 
		344.3,344.7 346.5,344.5 347,344.2 348.9,342.7 348.9,342 349.9,340.2 349.9,337.7 349.9,336.7 348.3,334 347.5,333.2 347.5,332.7 
		348.3,330.9 347.9,330.2 347.4,329.4 347.4,328.4 347.8,327 349.7,325.5 351.2,324.9 352.3,324.5 353,323.5 354.9,322.1 356,320.7 
		356.5,319.7 356.5,318.7 357.1,318.1 358.4,317.9 359.2,317.9 359.2,318.5 360.4,318.4 361,316.9 365.8,313.5 366.3,313 
		366.6,312.4 366.3,311.2 366.6,310.4 369.1,310.4 370.1,310.4 370.1,311.2 370.9,311.2 371.2,310.4 372,309.7 373.6,310 
		374.3,310.7 375.3,312.2 376,312.2 376.7,312.2 377.2,313.2 377.7,312.6 377.9,312.4 379.1,312.4 381,312.4 380.9,316.2 
		382.8,317.7 385.1,318 386.7,318.7 388,319.6 388.6,320.7 390.3,321.2 391.4,322.2 392.8,323.4 392.8,324.4 395,324.5 396.1,325.2 
		397.3,326.2 398.5,327.2 399.7,329 401.6,330.6 403,330.9 404.2,331.6 405.3,331.6 406,332.4 406.6,332.9 407.7,333.2 408,332.9 
		408.3,332.2 408.3,330.9 408.5,330.2 409.6,330.2 411.8,330.2 413.4,331.2 414.6,331.4 415.7,331.2 418.1,331.4 419.5,331.5 
		419.9,331.5 420.1,332.4 426.4,332.4 426.7,331.6 428.3,331.5 429,329.4 429.7,329.1 433.9,329 435,329.2 437.2,329.7 437.8,330.4 
		439.9,330.4 440.4,330.2 440.4,327.9 441,327.1 441.6,327.1 441.8,327.9 442.9,327.9 442.9,329.7 444.2,329.6 444.6,330.4 
		447.2,330.2 449.5,328.4 450.2,327.7 450.4,326 451.6,325.9 452.1,325.2 453.1,325.4 453.6,326.2 454.2,326.5 455.1,326.6 
		455.3,327.1 459,327.1 459.6,327.7 461.5,327.9 464.5,325.7 466.3,328.4 467.4,329.6 468,328.4 468.4,327.2 469,326.6 469.9,326 
		471.5,326 472.3,326.6 472.6,327.2 473.1,327.2 473.9,326.5 475.7,325 478,323 479,322.7 479.6,322.9 481.9,324.6 482.9,324.7 
		484,324 485.4,323.5 486.4,323.5 487.1,324.1 487.6,324.6 487.6,329.7 489.7,329.7 490.3,330.5 491.1,330.4 491.3,331.9 492,333.2 
		492,336.1 492.8,336.9 493.9,337.1 493.9,340.7 493.1,341 493,343.6 490.3,346.7 489.9,347.7 489,348.4 488.7,349.4 489.1,349.7 
		489.9,350.2 491,350.1 491.1,350.2 491.7,350.9 492.7,351 493.6,351.4 494.3,351.9 497.5,352.6 498.5,352.6 499.2,353.1 
		500.4,354.5 501.4,356.4 502.2,357.7 504.1,358.7 505.9,360.2 506.4,360.9 508.1,360.9 508.1,359.9 509,359.9 509.3,360.9 
		509.6,361.4 510.1,362 510.9,362 511.1,361.2 512.1,361.4 512.1,362 513.1,362 513.8,362 514,361.1 514.7,361.2 515.5,361.2 
		515.5,362.5 514.4,364.2 514.3,366.6 514.2,367.9 514.2,369.7 515,369.7 515,370.7 514.3,370.7 514.2,374.2 515.2,375.7 
		517.1,379.2 519.6,383.2 522.7,387.2 523,387.7 523.7,387.6 524.2,386.9 524.7,387 525.1,387.6 527.5,387.5 528.3,388.5 
		531.1,390.4 531.8,391.4 531.5,392.2 530.5,392.5 529.6,393.2 529,394.4 528.4,395.9 527.5,396.7 526,398 525.4,399.2 524.5,400.7 
		524.1,401.7 523.5,403.4 523,405.9 523,406.9 522.5,407.4 522.4,409.9 521.5,410.1 520.6,412.1 520.5,413.6 519.9,414.5 
		519.8,417.4 518.2,418 517.4,418.6 514.8,421.1 515.2,423.9 513.5,424 512.4,425.9 512.1,427.1 510.5,428.1 509.4,429.4 
		509.4,430.1 507.8,430.1 507.5,430.9 506.1,430.6 505,429.6 504.1,428.4 503.3,427.1 502.5,426.1 501.7,425.1 500.7,424.5 
		499.5,423.9 498,424 497.8,423.4 497,423.5 495.9,424.5 495,425.4 494.3,425.1 493.7,424.4 492.7,423.9 491.7,424.1 491,424.5 
		489.7,424.6 487.7,426.1 487,427.1 486.6,428.1 486.3,429.4 486,430.4 483.2,432.4 482.1,432.9 478.8,432.9 477.5,432.4 
		476.7,431.5 476.1,431.6 475.4,432 474.2,432 471.6,429.5 471.2,428.6 470.1,428.9 469.8,429.4 463.9,429.6 463,429 460.8,428.9 
		459.9,429.4 458.9,428.9 457.6,429 457,429.4 456.1,428.9 454.8,428.9 454.4,429.5 451.9,429.5 450.5,430.9 449.2,431.4 
		448.4,431.6 447.7,432 444.3,432.1 443,430.9 442.1,430.6 440.4,430.6 439.4,430.1 438.9,429.6 436.3,429.5 435.2,430.1 
		432.9,430.4 432.8,430.9 432.3,430.4 429.8,429.1 428.7,428.9 426.5,428.9 425.6,429.4 423.5,429.6 423,430 421.2,430.1 
		420.3,429.5 418.6,429.6 417.2,428.9 416.1,429 415.4,430.1 414.9,430.1 413.6,430.6 408.9,430.9 408.3,431.4 407.8,431.1 
		406.8,430.6 403.7,430.6 402.8,430.5 402,430.1 400.6,430.4 398.5,433.6 397,435.4 396,437 394.9,438.4 394.4,438.9 391.9,438.9 
		389.5,443 389.2,443 387.2,443 386.6,444 384.8,444.4 384.3,444.4 383.6,443.9 382.1,443.9 381.4,443.1 379.1,443.1 377.9,442.6 
		376.7,442.9 375.5,443.1 375,443.1 371.8,445.4 368.2,445.4 366.2,446.9 364.9,447.6 363.9,448.1 361.3,450.5 360.3,453.9 
		358.3,456.4 357.4,458 356.5,459.6 356.1,460.9 355.9,463.4 355.1,463.9 354.6,463 353.3,462.1 351.4,461.9 350.4,463.1 
		350.1,464.9 350.9,465.1 350.9,466.1 350.4,466.6 350.4,467.4 351.2,468 349.7,469.4 347.8,469.4 346.7,470.5 345.4,470.9 
		344.3,471.4 343.5,471.6 342.4,471.9 341.4,470.5 340.4,469.1 339.3,469 338.1,468.5 336.7,468.6 335.3,467.9 334.8,467.4 
		334.3,466.6 333.7,467.4 332.9,466.9 332,466.1 331.2,464.6 330.1,463.1 329.2,462.4 328.6,461.6 327.8,460.9 326.8,460.5 
		325.8,460.6 325.2,461.4 324.2,461.4 323.7,460.6 322.1,460.5 321.5,460.6 320.7,458.4 319.9,457.1 320,455.9 318.5,454.1 
		317.5,453.9 316.6,452.6 316.3,452 316,450.1 315.3,449.4 314,448.1 313.3,446.4 313.1,445.6 312.5,444.6 312,443.6 311.6,442.5 
		311.1,441.9 310.3,440.6 309.7,439.6 309.6,439.4 310.2,438.6 311.1,439 311.6,439.9 311.9,440.9 312,441.4 312.1,442.5 
		312.4,442.9 314,442.9 314.5,442.1 314.9,441.5 315.6,441.1 315.7,440.1 314.9,440 314.1,440.6 313,441.1 312.8,440.5 313,439.9 
		313.7,439 314,437.1 313.8,436.4 313.1,436.1 311.7,436.1 311,434.9 310.2,434.4 309.5,434 308.3,433.9 307.7,434.4 306.7,433.9 
		306.2,433.4 305.4,431.6 304.9,430.4 304.4,429.1 303.8,428 304.1,426.9 307.9,424.1 308.3,423.5 306.5,423.1 306,422.4 
		305.5,420.6 305.2,419.4 302.9,415.4 301.6,413.5 299.9,412.1 298.2,410.5 296,408.9 294.1,407.4 292.6,406.5 286.8,402.9 
		284,401.4 282,401.1 279.4,399.4 277.5,398.2 274.4,397.9 273.8,397.9 273.1,397.1 264.8,397.1 263.1,398.1 262.1,398.7 
		261.4,399.2 259.4,399.2 259.1,398.7 259.1,395.5 258.6,394.9 257.8,394.5 257.8,393.7 258.4,393.4 258.5,392.2 258.5,391.6 
		257.8,391.4 257.8,388.6 258.5,387.7 258.5,386 257.8,385.9 257.3,385.4 257.3,384.7 257.3,383.7 257.3,382.1 257.3,380.1 
		254.8,377.5 254.8,375.6 256.1,373 258.3,370 258.8,368.2 259.2,367 260,363.9 261.7,363.1 265.8,359.2 267.2,356.7 268.3,353.7 
		268.1,350.6 270.5,350 270.6,349.2 271.9,349.2 271.9,350.4 274,350.2 274.5,348.5 274.7,347.7 275.2,347.2 275.6,346.7 
		276.2,346.7 276.4,347.5 277.1,347.7 277.7,348.4 278.1,349.2 278.3,349.6 278.7,349.6 278.9,349 279.4,348.5 279.9,348.6 
		280.8,347.2 281.4,345 281.7,344 282.1,342.9 282.6,342.4 282.7,341 281.9,340.5 282.5,339.5 282.9,338.9 	"/>
	<text id="XMLID_25_" transform="matrix(1 0 0 1 362.0464 385.5327)" class="st2 st3">安达卢西亚</text>
</g>
<g id="xiudashi">
	<polygon id="XMLID_24_" class="st0" points="352.5,479.4 352.5,477.6 353.2,477.6 353.2,477 353.8,477 353.8,477.6 354.3,477.6 
		355,478.1 355.1,478.9 355.7,478.9 355.7,478.1 356.3,478.1 356.3,478.9 356.9,478.9 356.9,478.1 358.4,478.4 358.7,479.5 358,480 
		355.9,480.1 355.6,480.6 353.8,480.6 353.2,480.1 	"/>
	<text id="XMLID_23_" transform="matrix(1 0 0 1 364.0147 476.9298)" class="st5 st2 st3">休达市</text>
</g>
<g id="meililiya">
	<polygon id="XMLID_22_" class="st0" points="469.2,514.8 469.9,514.1 470.5,514.1 470.5,514.8 471.2,514.8 471.7,515.5 471.7,516 
		471.6,517.1 471.1,517.8 469.9,517.8 469.2,517.3 	"/>
	<text id="XMLID_21_" transform="matrix(1 0 0 1 478.7693 512.4888)" class="st5 st2 st3">梅利利亚</text>
</g>
<g id="jianaliqundao">
	<polygon id="XMLID_20_" class="st0" points="35.2,496.1 33.7,494.9 32.3,494.1 31.4,495.1 30.3,496.1 29.7,496.1 28.4,497.6 
		28.4,498.1 27.2,499.9 28.1,501.6 28.6,502.4 28.6,503.6 28.6,505.5 29.8,505.5 30.3,507.4 31.2,508.1 31.2,509.4 32,510.6 
		32.8,511.6 33.7,513 33.4,514.5 33.9,515.5 33.9,517.6 35.2,518.5 36.6,517.3 36.6,515.6 37.7,515.1 37.7,514.8 38.5,513.5 
		39.3,513.3 40.1,512 40.1,510.4 40.1,508.1 40.1,506.4 40.1,505.6 40.1,504.6 40.1,503.9 41.6,503 41.6,501.6 41.6,500.9 
		40.8,499.6 40.1,498.5 40.1,496.9 39.4,495.5 38.4,495.1 37.3,495.4 37,496.1 	"/>
	<polygon id="XMLID_19_" class="st0" points="25,559.5 26.4,557.5 26.4,556.3 27.2,555.5 29.3,554.8 31.4,554.8 32.6,556.1 
		32.6,557.8 31.2,559.5 30.7,560.1 30.6,561.3 29.7,561.3 28.8,562.5 28.8,564.6 28,564.6 27.2,566.3 27.2,567.5 26.6,567.5 
		25,566.5 25,565.3 25,564.8 23.9,564.3 23.9,563.5 22.2,563.3 21.1,563.3 20,562.8 19.1,562.8 17.6,562.3 17.6,561.1 17.6,559.8 
		18.6,559.1 19.9,559.1 21,560 21.7,560.1 22.8,560.1 	"/>
	<polygon id="XMLID_18_" class="st0" points="65.5,533.3 66.9,534.5 68.6,534.5 70.5,534.5 71.4,536.3 73.1,537.3 73.1,538.3 
		73.1,539.3 73.1,541.1 72.3,542.3 71.1,543.3 70.3,544.3 69.3,545 66.9,545 65.5,545 64,545 63.2,543.8 61.9,543.5 61.9,542 
		61.9,541.3 61,540.1 61,539.1 61,538 61,537 61,536.1 62.1,534.8 62.6,533.3 64.1,533.3 	"/>
	<polygon id="XMLID_17_" class="st0" points="85.4,524.3 86.8,523.8 86.8,522.6 88,522.6 88.6,523.5 89.3,523.5 89.3,524.3 
		91.7,524.3 92.7,524.3 93.9,523.5 94.8,523.5 96.1,522.6 96.7,522.6 97.6,522.6 98.4,523.5 100,523.5 100.9,523.5 102.6,522.6 
		105.1,521.8 106,521 107.3,521 107.3,519 109.4,517.6 109.4,516.3 110.5,515.1 111.3,514.5 113,514.5 113.9,513.6 114.7,512.5 
		116.1,512.5 117,513.3 117.7,512.5 118.7,513.3 119.8,513.5 121.5,512.5 122.9,512.5 124.6,512.5 124.6,513.8 124.6,515 123.5,516 
		122.6,516.8 121.5,517.5 120.6,517.6 119.2,518.5 118.6,519.3 118.1,520.3 116.9,521.3 115.8,522.1 115.3,523.1 114.4,523.3 
		113.5,524.3 112.4,525.3 112.2,526.6 112.8,526.6 112.5,528.8 111.9,530 111.3,531.3 111,532.3 110.4,533.3 109.7,535.3 
		109.3,536.1 109,539.1 107.7,539.8 105.9,541.8 105,543.3 103.4,545 102,545 100.7,545 99.8,545 99.2,545 98.4,545.8 97.6,546.6 
		96.9,546.6 95.5,546.6 94.2,546.6 94.2,544.3 93.1,543.5 93,541.8 91.7,541 90.5,539.1 90.2,538.5 89.1,537 88.9,536.1 87.9,535 
		87.4,533.3 87.4,532.1 87.7,531 86.6,529.6 85.4,528.3 85.4,527.5 83.8,526.5 83.8,525.5 83.8,524.5 	"/>
	<polygon id="XMLID_16_" class="st0" points="159.2,539.1 157.8,539.1 157.8,538.5 156.6,538.5 156.6,537.6 155.2,537.6 
		155.2,538.5 152.1,538.5 151.2,537.6 149.8,537.6 148.8,537.6 147.9,537.6 146.7,537.6 146.7,540.5 146.7,541.5 146.7,542.8 
		146.7,543.5 143.1,545.8 141.2,546.6 140.2,546.6 140.2,548.5 140.2,550.8 140.2,553 141.7,555.6 142.2,557.3 143.4,558.3 
		144.5,559.1 145.6,560 147.6,561.1 148.2,562.3 149.7,562.3 150.6,562.3 151.2,563.3 152.7,563.3 154,563.3 154.1,561.8 
		155.8,561.1 156.9,560.5 157.7,559.8 159.2,559.8 160.2,559.8 161.4,559.1 161.4,557.8 162.2,556.8 163.4,556.1 163.4,554.8 
		163.4,554.3 163.4,552.8 163.4,551.5 164.5,551.3 164.5,550.5 163.3,549.1 164.5,548 164.5,546.6 163.7,545.8 162.5,545 
		161.6,543.5 161.7,541.8 161.9,539.1 163,538.5 162,536.6 160.8,536.6 160.8,537.8 160.8,539.1 160.2,539.1 	"/>
	<polygon id="XMLID_15_" class="st0" points="210,543.5 210,541 212,541 214.5,541 215.9,541 217.6,541 219.6,539.1 220.7,538 
		221.3,538 222.2,536.6 223,536.6 223,534.8 224.7,533.3 224.7,532 224.7,529.6 224.7,527.6 226.3,526.5 227.1,525.8 227.1,525.1 
		227.1,523 228,521.3 228,520.5 230.5,519 230.5,518.1 231.6,516.3 231.6,514.8 233.1,512.5 233.9,512.5 233.9,510.4 235,508.6 
		235,506.1 235,504.4 237,503.6 238.4,503.6 239.9,502.4 241.5,502.4 243,503.1 244.8,505 244.8,508.9 244.8,510.4 244.8,514.5 
		244.8,516.8 242.9,518 243,521 243.4,522 243.7,523.8 243,525.5 241.5,528.3 241.3,530.5 239.6,533.3 236.7,533.3 235.8,534.8 
		234.2,535 232.3,535.6 230.8,536.6 228.9,536.6 228.1,536.6 225.8,536.6 224.4,537.6 222.7,539.1 221.3,541.5 220.7,543.5 
		219.8,545 218.5,545 217.3,545 216,544 214.2,544 213.1,543.5 	"/>
	<polygon id="XMLID_14_" class="st0" points="244.8,492 241.8,494.9 241.8,496 246.1,496 246.1,496.9 247.5,496.9 247.5,496 
		248.8,494.4 248.8,493.9 249.9,492.9 250.8,492 254.3,492 255.8,491.1 256.9,490.4 258.3,489.6 259.8,489.6 261,488.4 262.4,487.6 
		263.2,486.5 263.2,485.9 263.2,485.1 263.2,484.4 263.8,484.4 263.8,483.1 264.5,483.1 264.5,481.4 263.5,481.4 263.5,479.4 
		265.9,477.5 265.9,475 263.4,473.1 261.7,473.1 262.3,471.9 262.1,470.1 260.9,470.1 259.6,470.1 260.6,471.9 260.1,471.9 
		259.5,473 260.3,474.4 261.7,474.4 261.7,476 260.9,477.1 260.4,478.9 260,479.6 258.9,480.5 257.6,479.9 256.9,479.1 255.9,479.1 
		255,479.9 254.3,480.1 253,480.1 252.5,481.1 251.6,481.6 250,482.1 248.5,482.9 247.7,483.6 246.9,483.6 246.1,484.9 244.8,485.4 
		244.8,486.4 	"/>
	<path id="XMLID_13_" class="st6" d="M259.3,462.6"/>
	<text id="XMLID_12_" transform="matrix(1 0 0 1 101.1531 476.9298)" class="st5 st2 st3">加那利群岛</text>
	<polyline id="XMLID_1_" class="st7" points="1,580.1 1,432.1 217.1,432.1 289.5,477.9 289.5,580.1 	"/>
</g>
</svg>
