<?xml version="1.0" encoding="utf-8"?>
<!-- Generator: Adobe Illustrator 19.0.0, SVG Export Plug-In . SVG Version: 6.00 Build 0)  -->
<svg version="1.1" id="默认地图_x5F_复制" xmlns="http://www.w3.org/2000/svg" xmlns:xlink="http://www.w3.org/1999/xlink"
	 x="0px" y="0px" viewBox="0 0 1280 913" style="enable-background:new 0 0 1280 913;" xml:space="preserve">
<style type="text/css">
	.st0{fill:#FFFFFF;stroke:#000000;stroke-miterlimit:10;}
</style>
<g id="图层_2_x5F_复制_2">
</g>
<g id="图层_3_x5F_复制_2">
</g>
<g id="图层_4_x5F_复制_2">
</g>
<g id="图层_5_x5F_复制_2">
</g>
<g id="图层_6_x5F_复制_2">
</g>
<g id="图层_7_x5F_复制_2">
</g>
<g id="图层_15_x5F_复制_2">
</g>
<g id="图层_8_x5F_复制_2">
</g>
<g id="图层_9_x5F_复制_2">
</g>
<g id="图层_10_x5F_复制_2">
</g>
<g id="图层_11_x5F_复制_2">
</g>
<g id="图层_12_x5F_复制_2">
</g>
<g id="图层_13_x5F_复制_2">
</g>
<g id="图层_14_x5F_复制_2">
</g>
<g id="图层_18_x5F_复制_2">
</g>
<g id="图层_19_x5F_复制_2">
	<polygon class="st0" points="44.6,797.9 42.1,795.9 39.9,794.6 38.4,796.3 36.6,797.9 35.6,797.9 33.6,800.4 33.6,801.1 
		31.6,803.9 33.1,806.6 33.9,807.9 33.9,809.9 33.9,812.9 35.9,812.9 36.6,815.9 38.1,817.1 38.1,819.1 39.4,821.4 40.6,822.9 
		42.1,825.1 41.6,827.6 42.4,829.1 42.4,832.6 44.6,833.9 46.9,831.9 46.9,829.4 48.6,828.6 48.6,827.9 49.9,825.9 51.1,825.6 
		52.4,823.6 52.4,820.6 52.4,817.1 52.4,814.3 52.4,813.1 52.4,811.6 52.4,810.4 54.9,808.9 54.9,806.9 54.9,805.4 53.6,803.6 
		52.4,801.6 52.4,799.1 51.4,796.9 49.6,796.1 47.9,796.6 47.4,797.9 	"/>
	<polygon class="st0" points="28.1,899.9 30.4,896.9 30.4,894.9 31.6,893.6 35.1,892.4 38.4,892.4 40.4,894.6 40.4,897.4 
		38.1,899.9 37.4,901.1 37.1,902.9 35.6,902.9 34.2,904.9 34.2,908.4 32.9,908.4 31.6,910.9 31.6,913 30.6,913 28.1,911.4 
		28.1,909.4 28.1,908.6 26.4,907.6 26.4,906.4 23.6,906.1 21.9,906.1 20.1,905.4 18.6,905.4 16.1,904.4 16.1,902.7 16.1,900.6 
		17.9,899.4 19.9,899.4 21.6,900.9 22.9,901.1 24.6,901.1 	"/>
	<polygon class="st0" points="93.4,857.9 95.6,859.9 98.4,859.9 101.4,859.9 102.9,862.6 105.6,864.4 105.6,865.9 105.6,867.6 
		105.6,870.4 104.4,872.4 102.4,873.9 101.1,875.4 99.5,876.6 95.6,876.6 93.4,876.6 90.9,876.6 89.6,874.9 87.6,874.4 87.6,871.9 
		87.6,870.6 86.1,868.9 86.1,867.3 86.1,865.4 86.1,863.6 86.1,862.4 87.9,860.1 88.6,857.9 91.1,857.9 	"/>
	<polygon class="st0" points="125.4,843.4 127.6,842.4 127.6,840.6 129.6,840.6 130.6,842 131.6,842 131.6,843.4 135.6,843.4 
		137.1,843.4 139.1,842 140.6,842 142.6,840.6 143.6,840.6 145.1,840.6 146.4,842 148.9,842 150.4,842 153.1,840.6 157.1,839.4 
		158.6,837.9 160.6,837.9 160.6,834.9 164.1,832.6 164.1,830.4 165.9,828.6 167.1,827.4 169.9,827.4 171.4,826.1 172.6,824.4 
		174.9,824.4 176.4,825.6 177.4,824.4 179.1,825.6 180.9,825.9 183.6,824.4 185.9,824.4 188.6,824.4 188.6,826.4 188.6,828.4 
		186.9,829.9 185.4,831.1 183.6,832.4 182.1,832.6 179.9,833.9 178.9,835.4 178.1,836.9 176.1,838.6 174.4,839.9 173.6,841.4 
		172.1,841.6 170.6,843.4 168.9,844.9 168.6,847.1 169.6,847.1 169.1,850.6 168.1,852.4 167.1,854.6 166.6,856.1 165.6,857.9 
		164.6,860.9 163.9,862.4 163.4,867.3 161.4,868.4 158.4,871.6 157,873.9 154.4,876.6 152.1,876.6 150.1,876.6 148.6,876.6 
		147.6,876.6 146.4,877.9 145.1,879.4 143.9,879.4 141.6,879.4 139.6,879.4 139.6,875.4 137.9,874.1 137.6,871.4 135.6,870.1 
		133.6,867.3 133.1,866.1 131.4,863.6 131.1,862.4 129.4,860.6 128.6,857.9 128.6,855.9 129.1,854.1 127.4,851.9 125.4,849.6 
		125.4,848.4 122.9,846.9 122.9,845.1 122.9,843.6 	"/>
	<polygon class="st0" points="244.4,867.3 242.1,867.3 242.1,866.1 240.1,866.1 240.1,864.9 237.9,864.9 237.9,866.1 232.9,866.1 
		231.4,864.9 229.1,864.9 227.6,864.9 226.1,864.9 224.1,864.9 224.1,869.4 224.1,871.1 224.1,873.1 224.1,874.4 218.4,877.9 
		215.4,879.4 213.6,879.4 213.6,882.4 213.6,886.1 213.6,889.6 216.1,893.9 216.9,896.4 218.9,898.1 220.6,899.4 222.4,900.9 
		225.6,902.7 226.6,904.6 229,904.6 230.4,904.6 231.4,906.1 233.9,906.1 235.9,906.1 236.1,903.9 238.9,902.7 240.6,901.6 
		241.9,900.6 244.4,900.4 245.9,900.6 247.9,899.4 247.9,897.4 249.1,895.6 251.1,894.6 251.1,892.4 251.1,891.6 251.1,889.4 
		251.1,887.1 252.9,886.9 252.9,885.5 250.9,883.4 252.9,881.6 252.9,879.4 251.6,877.9 249.6,876.6 248.1,874.4 248.4,871.4 
		248.6,867.3 250.4,866.1 248.9,863.1 246.9,863.1 246.9,865.1 246.9,867.3 245.9,867.3 	"/>
	<polygon class="st0" points="326.1,874.1 326.1,870.1 329.4,870.1 333.4,870.1 335.6,870.1 338.4,870.1 341.6,867.3 343.4,865.4 
		344.4,865.4 345.9,863.1 347.1,863.1 347.1,860.1 349.9,857.9 349.9,855.6 349.9,851.9 349.9,848.6 352.4,846.9 353.6,845.6 
		353.6,844.6 353.6,841.1 355.1,838.6 355.1,837.1 359.1,834.6 359.1,833.4 360.9,830.4 360.9,828.1 363.4,824.4 364.6,824.4 
		364.6,820.6 366.4,817.9 366.4,813.9 366.4,811.1 369.6,809.9 371.9,809.9 374.4,807.9 376.9,807.9 379.4,809.1 382.1,812.1 
		382.1,818.4 382.1,820.6 382.1,827.6 382.1,831.1 379.1,833.1 379.4,838.1 379.9,839.6 380.4,842.4 379.4,845.1 376.9,849.9 
		376.6,853.4 373.9,857.9 369.1,857.9 367.6,860.4 365.1,860.6 362.1,861.6 359.6,863.1 356.6,863.1 355.4,863.1 351.6,863.1 
		349.4,864.9 346.6,867.3 344.4,870.9 343.4,874.1 341.9,876.6 339.9,876.6 337.9,876.6 335.9,875.1 332.9,875.1 331.1,874.1 	"/>
	<polygon class="st0" points="382.1,791.1 377.4,795.6 377.4,797.6 384.4,797.6 384.4,799.1 386.6,799.1 386.6,797.6 388.6,795.1 
		388.6,794.1 390.4,792.6 391.9,791.1 397.6,791.1 399.9,789.9 401.6,788.6 403.9,787.4 406.4,787.4 408.4,785.4 410.6,784.1 
		411.9,782.4 411.9,781.1 411.9,780.1 411.9,778.9 412.9,778.9 412.9,776.9 413.9,776.9 413.9,773.9 412.4,773.9 412.4,770.9 
		416.1,767.9 416.1,763.9 412.1,760.9 409.4,760.9 410.4,758.8 410.1,756.1 408.1,756.1 406.1,756.1 407.6,758.8 406.9,758.8 
		405.9,760.6 407.1,762.9 409.4,762.6 409.4,765.4 408.1,767.1 407.4,769.9 406.6,771.4 404.9,772.6 402.9,771.6 401.6,770.4 
		400.1,770.4 398.6,771.6 397.6,772.1 395.4,772.1 394.6,773.6 393.1,774.6 390.6,775.4 388.1,776.4 386.9,777.6 385.6,777.6 
		384.4,779.6 382.1,780.4 382.1,782.1 	"/>
</g>
<g id="图层_20_x5F_复制_2">
</g>
<g id="图层_21_x5F_复制_2">
</g>
</svg>
